<svg width="446" height="446" viewBox="0 0 446 446" fill="none" xmlns="http://www.w3.org/2000/svg">
<mask id="mask0_110_592" style="mask-type:alpha" maskUnits="userSpaceOnUse" x="0" y="0" width="446" height="446">
<circle cx="223" cy="223" r="223" fill="#558EB4"/>
</mask>
<g mask="url(#mask0_110_592)">
<circle cx="7.52173" cy="9.77417" r="9.77417" fill="#558EB4"/>
<circle cx="7.52173" cy="70.374" r="9.77417" fill="#558EB4"/>
<circle cx="7.52173" cy="130.974" r="9.77417" fill="#558EB4"/>
<circle cx="7.52173" cy="191.574" r="9.77417" fill="#558EB4"/>
<circle cx="7.52173" cy="252.174" r="9.77417" fill="#558EB4"/>
<circle cx="7.52173" cy="312.773" r="9.77417" fill="#558EB4"/>
<circle cx="7.52173" cy="373.373" r="9.77417" fill="#558EB4"/>
<circle cx="7.52173" cy="433.973" r="9.77417" fill="#558EB4"/>
<circle cx="62.2571" cy="9.77417" r="9.77417" fill="#558EB4"/>
<circle cx="62.2571" cy="70.374" r="9.77417" fill="#558EB4"/>
<circle cx="62.2571" cy="130.974" r="9.77417" fill="#558EB4"/>
<circle cx="62.2571" cy="191.574" r="9.77417" fill="#558EB4"/>
<circle cx="62.2571" cy="252.174" r="9.77417" fill="#558EB4"/>
<circle cx="62.2571" cy="312.773" r="9.77417" fill="#558EB4"/>
<circle cx="62.2571" cy="373.373" r="9.77417" fill="#558EB4"/>
<circle cx="62.2571" cy="433.973" r="9.77417" fill="#558EB4"/>
<circle cx="116.992" cy="9.77417" r="9.77417" fill="#558EB4"/>
<circle cx="116.992" cy="70.374" r="9.77417" fill="#558EB4"/>
<circle cx="116.992" cy="130.974" r="9.77417" fill="#558EB4"/>
<circle cx="116.992" cy="191.574" r="9.77417" fill="#558EB4"/>
<circle cx="116.992" cy="252.174" r="9.77417" fill="#558EB4"/>
<circle cx="116.992" cy="312.773" r="9.77417" fill="#558EB4"/>
<circle cx="116.992" cy="373.373" r="9.77417" fill="#558EB4"/>
<circle cx="116.992" cy="433.973" r="9.77417" fill="#558EB4"/>
<circle cx="171.728" cy="9.77417" r="9.77417" fill="#558EB4"/>
<circle cx="171.728" cy="70.374" r="9.77417" fill="#558EB4"/>
<circle cx="171.728" cy="130.974" r="9.77417" fill="#558EB4"/>
<circle cx="171.728" cy="191.574" r="9.77417" fill="#558EB4"/>
<circle cx="171.728" cy="252.174" r="9.77417" fill="#558EB4"/>
<circle cx="171.728" cy="312.773" r="9.77417" fill="#558EB4"/>
<circle cx="171.728" cy="373.373" r="9.77417" fill="#558EB4"/>
<circle cx="171.728" cy="433.973" r="9.77417" fill="#558EB4"/>
<circle cx="226.463" cy="9.77417" r="9.77417" fill="#558EB4"/>
<circle cx="226.463" cy="70.374" r="9.77417" fill="#558EB4"/>
<circle cx="226.463" cy="130.974" r="9.77417" fill="#558EB4"/>
<circle cx="226.463" cy="191.574" r="9.77417" fill="#558EB4"/>
<circle cx="226.463" cy="252.174" r="9.77417" fill="#558EB4"/>
<circle cx="226.463" cy="312.773" r="9.77417" fill="#558EB4"/>
<circle cx="226.463" cy="373.373" r="9.77417" fill="#558EB4"/>
<circle cx="226.463" cy="433.973" r="9.77417" fill="#558EB4"/>
<circle cx="281.198" cy="9.77417" r="9.77417" fill="#558EB4"/>
<circle cx="281.198" cy="70.374" r="9.77417" fill="#558EB4"/>
<circle cx="281.198" cy="130.974" r="9.77417" fill="#558EB4"/>
<circle cx="281.198" cy="191.574" r="9.77417" fill="#558EB4"/>
<circle cx="281.198" cy="252.174" r="9.77417" fill="#558EB4"/>
<circle cx="281.198" cy="312.773" r="9.77417" fill="#558EB4"/>
<circle cx="281.198" cy="373.373" r="9.77417" fill="#558EB4"/>
<circle cx="281.198" cy="433.973" r="9.77417" fill="#558EB4"/>
<circle cx="335.934" cy="9.77417" r="9.77417" fill="#558EB4"/>
<circle cx="335.934" cy="70.374" r="9.77417" fill="#558EB4"/>
<circle cx="335.934" cy="130.974" r="9.77417" fill="#558EB4"/>
<circle cx="335.934" cy="191.574" r="9.77417" fill="#558EB4"/>
<circle cx="335.934" cy="252.174" r="9.77417" fill="#558EB4"/>
<circle cx="335.934" cy="312.773" r="9.77417" fill="#558EB4"/>
<circle cx="335.934" cy="373.373" r="9.77417" fill="#558EB4"/>
<circle cx="335.934" cy="433.973" r="9.77417" fill="#558EB4"/>
<circle cx="390.669" cy="9.77417" r="9.77417" fill="#558EB4"/>
<circle cx="390.669" cy="70.374" r="9.77417" fill="#558EB4"/>
<circle cx="390.669" cy="130.974" r="9.77417" fill="#558EB4"/>
<circle cx="390.669" cy="191.574" r="9.77417" fill="#558EB4"/>
<circle cx="390.669" cy="252.174" r="9.77417" fill="#558EB4"/>
<circle cx="390.669" cy="312.773" r="9.77417" fill="#558EB4"/>
<circle cx="390.669" cy="373.373" r="9.77417" fill="#558EB4"/>
<circle cx="390.669" cy="433.973" r="9.77417" fill="#558EB4"/>
<circle cx="445.405" cy="9.77417" r="9.77417" fill="#558EB4"/>
<circle cx="445.405" cy="70.374" r="9.77417" fill="#558EB4"/>
<circle cx="445.405" cy="130.974" r="9.77417" fill="#558EB4"/>
<circle cx="445.405" cy="191.574" r="9.77417" fill="#558EB4"/>
<circle cx="445.405" cy="252.174" r="9.77417" fill="#558EB4"/>
<circle cx="445.405" cy="312.773" r="9.77417" fill="#558EB4"/>
<circle cx="445.405" cy="373.373" r="9.77417" fill="#558EB4"/>
<circle cx="445.405" cy="433.973" r="9.77417" fill="#558EB4"/>
</g>
</svg>
