<svg width="757" height="658" viewBox="0 0 757 658" fill="none" xmlns="http://www.w3.org/2000/svg">
<g filter="url(#filter0_d_104_729)">
<g clip-path="url(#clip0_104_729)">
<rect width="1166.91" height="562.662" rx="11" transform="matrix(-0.874908 0.48429 0.489656 0.871916 388.082 83.4543)" fill="#558EB4"/>
<path d="M71.1614 357.119C67.4654 357.119 64.068 356.26 60.9694 354.543C57.908 352.825 55.4627 350.436 53.6334 347.375C51.8414 344.276 50.9454 340.804 50.9454 336.959C50.9454 333.113 51.8414 329.66 53.6334 326.599C55.4627 323.537 57.908 321.148 60.9694 319.431C64.068 317.713 67.4654 316.855 71.1614 316.855C74.8574 316.855 78.236 317.713 81.2974 319.431C84.396 321.148 86.8227 323.537 88.5774 326.599C90.3694 329.66 91.2654 333.113 91.2654 336.959C91.2654 340.804 90.3694 344.276 88.5774 347.375C86.7854 350.436 84.3587 352.825 81.2974 354.543C78.236 356.26 74.8574 357.119 71.1614 357.119ZM71.1614 348.383C74.2974 348.383 76.7987 347.337 78.6654 345.247C80.5694 343.156 81.5214 340.393 81.5214 336.959C81.5214 333.487 80.5694 330.724 78.6654 328.671C76.7987 326.58 74.2974 325.535 71.1614 325.535C67.988 325.535 65.4494 326.561 63.5454 328.615C61.6787 330.668 60.7454 333.449 60.7454 336.959C60.7454 340.431 61.6787 343.212 63.5454 345.303C65.4494 347.356 67.988 348.383 71.1614 348.383ZM112.609 329.903C113.542 328.447 114.83 327.271 116.473 326.375C118.115 325.479 120.038 325.031 122.241 325.031C124.817 325.031 127.15 325.684 129.241 326.991C131.331 328.297 132.974 330.164 134.169 332.591C135.401 335.017 136.017 337.836 136.017 341.047C136.017 344.257 135.401 347.095 134.169 349.559C132.974 351.985 131.331 353.871 129.241 355.215C127.15 356.521 124.817 357.175 122.241 357.175C120.075 357.175 118.153 356.727 116.473 355.831C114.83 354.935 113.542 353.777 112.609 352.359L112.609 371.623L103.033 371.623L103.033 325.479L112.609 325.479L112.609 329.903ZM126.273 341.047C126.273 338.657 125.601 336.791 124.257 335.447C122.95 334.065 121.326 333.375 119.385 333.375C117.481 333.375 115.857 334.065 114.513 335.447C113.206 336.828 112.553 338.713 112.553 341.103C112.553 343.492 113.206 345.377 114.513 346.759C115.857 348.14 117.481 348.831 119.385 348.831C121.289 348.831 122.913 348.14 124.257 346.759C125.601 345.34 126.273 343.436 126.273 341.047ZM176.937 340.599C176.937 341.495 176.881 342.428 176.769 343.399L155.097 343.399C155.246 345.34 155.862 346.833 156.945 347.879C158.065 348.887 159.427 349.391 161.033 349.391C163.422 349.391 165.083 348.383 166.017 346.367L176.209 346.367C175.686 348.42 174.734 350.268 173.353 351.911C172.009 353.553 170.31 354.841 168.257 355.775C166.203 356.708 163.907 357.175 161.369 357.175C158.307 357.175 155.582 356.521 153.193 355.215C150.803 353.908 148.937 352.041 147.593 349.615C146.249 347.188 145.577 344.351 145.577 341.103C145.577 337.855 146.23 335.017 147.537 332.591C148.881 330.164 150.747 328.297 153.137 326.991C155.526 325.684 158.27 325.031 161.369 325.031C164.393 325.031 167.081 325.665 169.433 326.935C171.785 328.204 173.614 330.015 174.921 332.367C176.265 334.719 176.937 337.463 176.937 340.599ZM167.137 338.079C167.137 336.436 166.577 335.129 165.457 334.159C164.337 333.188 162.937 332.703 161.257 332.703C159.651 332.703 158.289 333.169 157.169 334.103C156.086 335.036 155.414 336.361 155.153 338.079L167.137 338.079ZM207.468 325.143C211.127 325.143 214.039 326.337 216.204 328.727C218.407 331.079 219.508 334.327 219.508 338.471L219.508 356.727L209.988 356.727L209.988 339.759C209.988 337.668 209.447 336.044 208.364 334.887C207.282 333.729 205.826 333.151 203.996 333.151C202.167 333.151 200.711 333.729 199.628 334.887C198.546 336.044 198.004 337.668 198.004 339.759L198.004 356.727L188.428 356.727L188.428 325.479L198.004 325.479L198.004 329.623C198.975 328.241 200.282 327.159 201.924 326.375C203.567 325.553 205.415 325.143 207.468 325.143ZM265.134 357.119C262.259 357.119 259.683 356.652 257.406 355.719C255.129 354.785 253.299 353.404 251.918 351.575C250.574 349.745 249.865 347.543 249.79 344.967L259.982 344.967C260.131 346.423 260.635 347.543 261.494 348.327C262.353 349.073 263.473 349.447 264.854 349.447C266.273 349.447 267.393 349.129 268.214 348.495C269.035 347.823 269.446 346.908 269.446 345.751C269.446 344.78 269.11 343.977 268.438 343.343C267.803 342.708 267.001 342.185 266.03 341.775C265.097 341.364 263.753 340.897 261.998 340.375C259.459 339.591 257.387 338.807 255.782 338.023C254.177 337.239 252.795 336.081 251.638 334.551C250.481 333.02 249.902 331.023 249.902 328.559C249.902 324.9 251.227 322.044 253.878 319.991C256.529 317.9 259.982 316.855 264.238 316.855C268.569 316.855 272.059 317.9 274.71 319.991C277.361 322.044 278.779 324.919 278.966 328.615L268.606 328.615C268.531 327.345 268.065 326.356 267.206 325.647C266.347 324.9 265.246 324.527 263.902 324.527C262.745 324.527 261.811 324.844 261.102 325.479C260.393 326.076 260.038 326.953 260.038 328.111C260.038 329.38 260.635 330.369 261.83 331.079C263.025 331.788 264.891 332.553 267.43 333.375C269.969 334.233 272.022 335.055 273.59 335.839C275.195 336.623 276.577 337.761 277.734 339.255C278.891 340.748 279.47 342.671 279.47 345.023C279.47 347.263 278.891 349.297 277.734 351.127C276.614 352.956 274.971 354.412 272.806 355.495C270.641 356.577 268.083 357.119 265.134 357.119ZM306.027 357.175C302.966 357.175 300.203 356.521 297.739 355.215C295.312 353.908 293.39 352.041 291.971 349.615C290.59 347.188 289.899 344.351 289.899 341.103C289.899 337.892 290.608 335.073 292.027 332.647C293.446 330.183 295.387 328.297 297.851 326.991C300.315 325.684 303.078 325.031 306.139 325.031C309.2 325.031 311.963 325.684 314.427 326.991C316.891 328.297 318.832 330.183 320.251 332.647C321.67 335.073 322.379 337.892 322.379 341.103C322.379 344.313 321.651 347.151 320.195 349.615C318.776 352.041 316.816 353.908 314.315 355.215C311.851 356.521 309.088 357.175 306.027 357.175ZM306.027 348.887C307.856 348.887 309.406 348.215 310.675 346.871C311.982 345.527 312.635 343.604 312.635 341.103C312.635 338.601 312 336.679 310.731 335.335C309.499 333.991 307.968 333.319 306.139 333.319C304.272 333.319 302.723 333.991 301.491 335.335C300.259 336.641 299.643 338.564 299.643 341.103C299.643 343.604 300.24 345.527 301.435 346.871C302.667 348.215 304.198 348.887 306.027 348.887ZM364.755 325.479L364.755 356.727L355.179 356.727L355.179 352.471C354.209 353.852 352.883 354.972 351.203 355.831C349.561 356.652 347.731 357.063 345.715 357.063C343.326 357.063 341.217 356.54 339.387 355.495C337.558 354.412 336.139 352.863 335.131 350.847C334.123 348.831 333.619 346.46 333.619 343.735L333.619 325.479L343.139 325.479L343.139 342.447C343.139 344.537 343.681 346.161 344.763 347.319C345.846 348.476 347.302 349.055 349.131 349.055C350.998 349.055 352.473 348.476 353.555 347.319C354.638 346.161 355.179 344.537 355.179 342.447L355.179 325.479L364.755 325.479ZM387.65 330.687C388.77 328.969 390.17 327.625 391.85 326.655C393.53 325.647 395.396 325.143 397.45 325.143L397.45 335.279L394.818 335.279C392.428 335.279 390.636 335.801 389.442 336.847C388.247 337.855 387.65 339.647 387.65 342.223L387.65 356.727L378.074 356.727L378.074 325.479L387.65 325.479L387.65 330.687ZM406.563 341.103C406.563 337.855 407.216 335.017 408.523 332.591C409.867 330.164 411.715 328.297 414.067 326.991C416.456 325.684 419.182 325.031 422.243 325.031C426.163 325.031 429.43 326.057 432.043 328.111C434.694 330.164 436.43 333.057 437.251 336.791L427.059 336.791C426.2 334.401 424.539 333.207 422.075 333.207C420.32 333.207 418.92 333.897 417.875 335.279C416.83 336.623 416.307 338.564 416.307 341.103C416.307 343.641 416.83 345.601 417.875 346.983C418.92 348.327 420.32 348.999 422.075 348.999C424.539 348.999 426.2 347.804 427.059 345.415L437.251 345.415C436.43 349.073 434.694 351.948 432.043 354.039C429.392 356.129 426.126 357.175 422.243 357.175C419.182 357.175 416.456 356.521 414.067 355.215C411.715 353.908 409.867 352.041 408.523 349.615C407.216 347.188 406.563 344.351 406.563 341.103ZM478.269 340.599C478.269 341.495 478.213 342.428 478.101 343.399L456.429 343.399C456.578 345.34 457.194 346.833 458.277 347.879C459.397 348.887 460.76 349.391 462.365 349.391C464.754 349.391 466.416 348.383 467.349 346.367L477.541 346.367C477.018 348.42 476.066 350.268 474.685 351.911C473.341 353.553 471.642 354.841 469.589 355.775C467.536 356.708 465.24 357.175 462.701 357.175C459.64 357.175 456.914 356.521 454.525 355.215C452.136 353.908 450.269 352.041 448.925 349.615C447.581 347.188 446.909 344.351 446.909 341.103C446.909 337.855 447.562 335.017 448.869 332.591C450.213 330.164 452.08 328.297 454.469 326.991C456.858 325.684 459.602 325.031 462.701 325.031C465.725 325.031 468.413 325.665 470.765 326.935C473.117 328.204 474.946 330.015 476.253 332.367C477.597 334.719 478.269 337.463 478.269 340.599ZM468.469 338.079C468.469 336.436 467.909 335.129 466.789 334.159C465.669 333.188 464.269 332.703 462.589 332.703C460.984 332.703 459.621 333.169 458.501 334.103C457.418 335.036 456.746 336.361 456.485 338.079L468.469 338.079Z" fill="#003253"/>
<path d="M24.5145 427.895C22.9625 427.895 21.5465 427.535 20.2665 426.815C18.9865 426.079 17.9705 425.063 17.2185 423.767C16.4825 422.455 16.1145 420.983 16.1145 419.351C16.1145 417.719 16.4825 416.255 17.2185 414.959C17.9705 413.647 18.9865 412.631 20.2665 411.911C21.5465 411.175 22.9625 410.807 24.5145 410.807C26.0825 410.807 27.5065 411.175 28.7865 411.911C30.0665 412.631 31.0745 413.639 31.8105 414.935C32.5465 416.231 32.9145 417.703 32.9145 419.351C32.9145 420.999 32.5465 422.471 31.8105 423.767C31.0745 425.063 30.0665 426.079 28.7865 426.815C27.5065 427.535 26.0825 427.895 24.5145 427.895ZM24.5145 425.999C25.6825 425.999 26.7305 425.727 27.6585 425.183C28.6025 424.639 29.3385 423.863 29.8665 422.855C30.4105 421.847 30.6825 420.679 30.6825 419.351C30.6825 418.007 30.4105 416.839 29.8665 415.847C29.3385 414.839 28.6105 414.063 27.6825 413.519C26.7545 412.975 25.6985 412.703 24.5145 412.703C23.3305 412.703 22.2745 412.975 21.3465 413.519C20.4185 414.063 19.6825 414.839 19.1385 415.847C18.6105 416.839 18.3465 418.007 18.3465 419.351C18.3465 420.679 18.6105 421.847 19.1385 422.855C19.6825 423.863 20.4185 424.639 21.3465 425.183C22.2905 425.727 23.3465 425.999 24.5145 425.999ZM37.9817 416.711C38.3657 415.959 38.9097 415.375 39.6137 414.959C40.3337 414.543 41.2057 414.335 42.2297 414.335L42.2297 416.591L41.6537 416.591C39.2057 416.591 37.9817 417.919 37.9817 420.575L37.9817 427.727L35.7977 427.727L35.7977 414.575L37.9817 414.575L37.9817 416.711ZM47.4148 416.375L47.4148 424.127C47.4148 424.767 47.5508 425.223 47.8228 425.495C48.0948 425.751 48.5668 425.879 49.2388 425.879L50.8468 425.879L50.8468 427.727L48.8788 427.727C47.6628 427.727 46.7508 427.447 46.1428 426.887C45.5348 426.327 45.2308 425.407 45.2308 424.127L45.2308 416.375L43.5268 416.375L43.5268 414.575L45.2308 414.575L45.2308 411.263L47.4148 411.263L47.4148 414.575L50.8468 414.575L50.8468 416.375L47.4148 416.375ZM54.621 412.439C54.205 412.439 53.853 412.295 53.565 412.007C53.277 411.719 53.133 411.367 53.133 410.951C53.133 410.535 53.277 410.183 53.565 409.895C53.853 409.607 54.205 409.463 54.621 409.463C55.021 409.463 55.357 409.607 55.629 409.895C55.917 410.183 56.061 410.535 56.061 410.951C56.061 411.367 55.917 411.719 55.629 412.007C55.357 412.295 55.021 412.439 54.621 412.439ZM55.677 414.575L55.677 427.727L53.493 427.727L53.493 414.575L55.677 414.575ZM58.5833 421.127C58.5833 419.767 58.8553 418.583 59.3993 417.575C59.9433 416.551 60.6953 415.759 61.6553 415.199C62.6313 414.639 63.7433 414.359 64.9913 414.359C66.6073 414.359 67.9353 414.751 68.9753 415.535C70.0313 416.319 70.7273 417.407 71.0633 418.799L68.7113 418.799C68.4873 417.999 68.0473 417.367 67.3913 416.903C66.7513 416.439 65.9513 416.207 64.9913 416.207C63.7433 416.207 62.7353 416.639 61.9673 417.503C61.1993 418.351 60.8153 419.559 60.8153 421.127C60.8153 422.711 61.1993 423.935 61.9673 424.799C62.7353 425.663 63.7433 426.095 64.9913 426.095C65.9513 426.095 66.7513 425.871 67.3913 425.423C68.0313 424.975 68.4713 424.335 68.7113 423.503L71.0633 423.503C70.7113 424.847 70.0073 425.927 68.9513 426.743C67.8953 427.543 66.5753 427.943 64.9913 427.943C63.7433 427.943 62.6313 427.663 61.6553 427.103C60.6953 426.543 59.9433 425.751 59.3993 424.727C58.8553 423.703 58.5833 422.503 58.5833 421.127ZM76.1614 409.967L76.1614 427.727L73.9774 427.727L73.9774 409.967L76.1614 409.967ZM91.8836 420.647C91.8836 421.063 91.8596 421.503 91.8116 421.967L81.2996 421.967C81.3796 423.263 81.8196 424.279 82.6196 425.015C83.4356 425.735 84.4196 426.095 85.5716 426.095C86.5156 426.095 87.2996 425.879 87.9236 425.447C88.5636 424.999 89.0116 424.407 89.2676 423.671L91.6196 423.671C91.2676 424.935 90.5636 425.967 89.5076 426.767C88.4516 427.551 87.1396 427.943 85.5716 427.943C84.3236 427.943 83.2036 427.663 82.2116 427.103C81.2356 426.543 80.4676 425.751 79.9076 424.727C79.3476 423.687 79.0676 422.487 79.0676 421.127C79.0676 419.767 79.3396 418.575 79.8836 417.551C80.4276 416.527 81.1876 415.743 82.1636 415.199C83.1556 414.639 84.2916 414.359 85.5716 414.359C86.8196 414.359 87.9236 414.631 88.8836 415.175C89.8436 415.719 90.5796 416.471 91.0916 417.431C91.6196 418.375 91.8836 419.447 91.8836 420.647ZM89.6276 420.191C89.6276 419.359 89.4436 418.647 89.0756 418.055C88.7076 417.447 88.2036 416.991 87.5636 416.687C86.9396 416.367 86.2436 416.207 85.4756 416.207C84.3716 416.207 83.4276 416.559 82.6436 417.263C81.8756 417.967 81.4356 418.943 81.3236 420.191L89.6276 420.191ZM103.349 412.775L103.349 418.367L109.445 418.367L109.445 420.167L103.349 420.167L103.349 425.927L110.165 425.927L110.165 427.727L101.165 427.727L101.165 410.975L110.165 410.975L110.165 412.775L103.349 412.775ZM112.654 421.103C112.654 419.759 112.926 418.583 113.47 417.575C114.014 416.551 114.758 415.759 115.702 415.199C116.662 414.639 117.734 414.359 118.918 414.359C119.942 414.359 120.894 414.599 121.774 415.079C122.654 415.543 123.326 416.159 123.79 416.927L123.79 409.967L125.998 409.967L125.998 427.727L123.79 427.727L123.79 425.255C123.358 426.039 122.718 426.687 121.87 427.199C121.022 427.695 120.03 427.943 118.894 427.943C117.726 427.943 116.662 427.655 115.702 427.079C114.758 426.503 114.014 425.695 113.47 424.655C112.926 423.615 112.654 422.431 112.654 421.103ZM123.79 421.127C123.79 420.135 123.59 419.271 123.19 418.535C122.79 417.799 122.246 417.239 121.558 416.855C120.886 416.455 120.142 416.255 119.326 416.255C118.51 416.255 117.766 416.447 117.094 416.831C116.422 417.215 115.886 417.775 115.486 418.511C115.086 419.247 114.886 420.111 114.886 421.103C114.886 422.111 115.086 422.991 115.486 423.743C115.886 424.479 116.422 425.047 117.094 425.447C117.766 425.831 118.51 426.023 119.326 426.023C120.142 426.023 120.886 425.831 121.558 425.447C122.246 425.047 122.79 424.479 123.19 423.743C123.59 422.991 123.79 422.119 123.79 421.127ZM130.816 412.439C130.4 412.439 130.048 412.295 129.76 412.007C129.472 411.719 129.328 411.367 129.328 410.951C129.328 410.535 129.472 410.183 129.76 409.895C130.048 409.607 130.4 409.463 130.816 409.463C131.216 409.463 131.552 409.607 131.824 409.895C132.112 410.183 132.256 410.535 132.256 410.951C132.256 411.367 132.112 411.719 131.824 412.007C131.552 412.295 131.216 412.439 130.816 412.439ZM131.872 414.575L131.872 427.727L129.688 427.727L129.688 414.575L131.872 414.575ZM138.259 416.375L138.259 424.127C138.259 424.767 138.395 425.223 138.667 425.495C138.939 425.751 139.411 425.879 140.083 425.879L141.691 425.879L141.691 427.727L139.723 427.727C138.507 427.727 137.595 427.447 136.987 426.887C136.379 426.327 136.075 425.407 136.075 424.127L136.075 416.375L134.371 416.375L134.371 414.575L136.075 414.575L136.075 411.263L138.259 411.263L138.259 414.575L141.691 414.575L141.691 416.375L138.259 416.375ZM150.073 427.943C148.841 427.943 147.721 427.663 146.713 427.103C145.721 426.543 144.937 425.751 144.361 424.727C143.801 423.687 143.521 422.487 143.521 421.127C143.521 419.783 143.809 418.599 144.385 417.575C144.977 416.535 145.777 415.743 146.785 415.199C147.793 414.639 148.921 414.359 150.169 414.359C151.417 414.359 152.545 414.639 153.553 415.199C154.561 415.743 155.353 416.527 155.929 417.551C156.521 418.575 156.817 419.767 156.817 421.127C156.817 422.487 156.513 423.687 155.905 424.727C155.313 425.751 154.505 426.543 153.481 427.103C152.457 427.663 151.321 427.943 150.073 427.943ZM150.073 426.023C150.857 426.023 151.593 425.839 152.281 425.471C152.969 425.103 153.521 424.551 153.937 423.815C154.369 423.079 154.585 422.183 154.585 421.127C154.585 420.071 154.377 419.175 153.961 418.439C153.545 417.703 153.001 417.159 152.329 416.807C151.657 416.439 150.929 416.255 150.145 416.255C149.345 416.255 148.609 416.439 147.937 416.807C147.281 417.159 146.753 417.703 146.353 418.439C145.953 419.175 145.753 420.071 145.753 421.127C145.753 422.199 145.945 423.103 146.329 423.839C146.729 424.575 147.257 425.127 147.913 425.495C148.569 425.847 149.289 426.023 150.073 426.023ZM161.872 416.711C162.256 415.959 162.8 415.375 163.504 414.959C164.224 414.543 165.096 414.335 166.12 414.335L166.12 416.591L165.544 416.591C163.096 416.591 161.872 417.919 161.872 420.575L161.872 427.727L159.688 427.727L159.688 414.575L161.872 414.575L161.872 416.711ZM176.168 412.439C175.752 412.439 175.4 412.295 175.112 412.007C174.824 411.719 174.68 411.367 174.68 410.951C174.68 410.535 174.824 410.183 175.112 409.895C175.4 409.607 175.752 409.463 176.168 409.463C176.568 409.463 176.904 409.607 177.176 409.895C177.464 410.183 177.608 410.535 177.608 410.951C177.608 411.367 177.464 411.719 177.176 412.007C176.904 412.295 176.568 412.439 176.168 412.439ZM177.224 414.575L177.224 427.727L175.04 427.727L175.04 414.575L177.224 414.575ZM185.602 427.943C184.594 427.943 183.69 427.775 182.89 427.439C182.09 427.087 181.458 426.607 180.994 425.999C180.53 425.375 180.274 424.663 180.226 423.863L182.482 423.863C182.546 424.519 182.85 425.055 183.394 425.471C183.954 425.887 184.682 426.095 185.578 426.095C186.41 426.095 187.066 425.911 187.546 425.543C188.026 425.175 188.266 424.711 188.266 424.151C188.266 423.575 188.01 423.151 187.498 422.879C186.986 422.591 186.194 422.311 185.122 422.039C184.146 421.783 183.346 421.527 182.722 421.271C182.114 420.999 181.586 420.607 181.138 420.095C180.706 419.567 180.49 418.879 180.49 418.031C180.49 417.359 180.69 416.743 181.09 416.183C181.49 415.623 182.058 415.183 182.794 414.863C183.53 414.527 184.37 414.359 185.314 414.359C186.77 414.359 187.946 414.727 188.842 415.463C189.738 416.199 190.218 417.207 190.282 418.487L188.098 418.487C188.05 417.799 187.77 417.247 187.258 416.831C186.762 416.415 186.09 416.207 185.242 416.207C184.458 416.207 183.834 416.375 183.37 416.711C182.906 417.047 182.674 417.487 182.674 418.031C182.674 418.463 182.81 418.823 183.082 419.111C183.37 419.383 183.722 419.607 184.138 419.783C184.57 419.943 185.162 420.127 185.914 420.335C186.858 420.591 187.626 420.847 188.218 421.103C188.81 421.343 189.314 421.711 189.73 422.207C190.162 422.703 190.386 423.351 190.402 424.151C190.402 424.871 190.202 425.519 189.802 426.095C189.402 426.671 188.834 427.127 188.098 427.463C187.378 427.783 186.546 427.943 185.602 427.943ZM205.62 427.943C204.388 427.943 203.268 427.663 202.26 427.103C201.268 426.543 200.484 425.751 199.908 424.727C199.348 423.687 199.068 422.487 199.068 421.127C199.068 419.783 199.356 418.599 199.932 417.575C200.524 416.535 201.324 415.743 202.332 415.199C203.34 414.639 204.468 414.359 205.716 414.359C206.964 414.359 208.092 414.639 209.1 415.199C210.108 415.743 210.9 416.527 211.476 417.551C212.068 418.575 212.364 419.767 212.364 421.127C212.364 422.487 212.06 423.687 211.452 424.727C210.86 425.751 210.052 426.543 209.028 427.103C208.004 427.663 206.868 427.943 205.62 427.943ZM205.62 426.023C206.404 426.023 207.14 425.839 207.828 425.471C208.516 425.103 209.068 424.551 209.484 423.815C209.916 423.079 210.132 422.183 210.132 421.127C210.132 420.071 209.924 419.175 209.508 418.439C209.092 417.703 208.548 417.159 207.876 416.807C207.204 416.439 206.476 416.255 205.692 416.255C204.892 416.255 204.156 416.439 203.484 416.807C202.828 417.159 202.3 417.703 201.9 418.439C201.5 419.175 201.3 420.071 201.3 421.127C201.3 422.199 201.492 423.103 201.876 423.839C202.276 424.575 202.804 425.127 203.46 425.495C204.116 425.847 204.836 426.023 205.62 426.023ZM217.419 416.999C217.851 416.247 218.491 415.623 219.339 415.127C220.203 414.615 221.203 414.359 222.339 414.359C223.507 414.359 224.563 414.639 225.507 415.199C226.467 415.759 227.219 416.551 227.763 417.575C228.307 418.583 228.579 419.759 228.579 421.103C228.579 422.431 228.307 423.615 227.763 424.655C227.219 425.695 226.467 426.503 225.507 427.079C224.563 427.655 223.507 427.943 222.339 427.943C221.219 427.943 220.227 427.695 219.363 427.199C218.515 426.687 217.867 426.055 217.419 425.303L217.419 433.967L215.235 433.967L215.235 414.575L217.419 414.575L217.419 416.999ZM226.347 421.103C226.347 420.111 226.147 419.247 225.747 418.511C225.347 417.775 224.803 417.215 224.115 416.831C223.443 416.447 222.699 416.255 221.883 416.255C221.083 416.255 220.339 416.455 219.651 416.855C218.979 417.239 218.435 417.807 218.019 418.559C217.619 419.295 217.419 420.151 217.419 421.127C217.419 422.119 217.619 422.991 218.019 423.743C218.435 424.479 218.979 425.047 219.651 425.447C220.339 425.831 221.083 426.023 221.883 426.023C222.699 426.023 223.443 425.831 224.115 425.447C224.803 425.047 225.347 424.479 225.747 423.743C226.147 422.991 226.347 422.111 226.347 421.103ZM243.454 420.647C243.454 421.063 243.43 421.503 243.382 421.967L232.87 421.967C232.95 423.263 233.39 424.279 234.19 425.015C235.006 425.735 235.99 426.095 237.142 426.095C238.086 426.095 238.87 425.879 239.494 425.447C240.134 424.999 240.582 424.407 240.838 423.671L243.19 423.671C242.838 424.935 242.134 425.967 241.078 426.767C240.022 427.551 238.71 427.943 237.142 427.943C235.894 427.943 234.774 427.663 233.782 427.103C232.806 426.543 232.038 425.751 231.478 424.727C230.918 423.687 230.638 422.487 230.638 421.127C230.638 419.767 230.91 418.575 231.454 417.551C231.998 416.527 232.758 415.743 233.734 415.199C234.726 414.639 235.862 414.359 237.142 414.359C238.39 414.359 239.494 414.631 240.454 415.175C241.414 415.719 242.15 416.471 242.662 417.431C243.19 418.375 243.454 419.447 243.454 420.647ZM241.198 420.191C241.198 419.359 241.014 418.647 240.646 418.055C240.278 417.447 239.774 416.991 239.134 416.687C238.51 416.367 237.814 416.207 237.046 416.207C235.942 416.207 234.998 416.559 234.214 417.263C233.446 417.967 233.006 418.943 232.894 420.191L241.198 420.191ZM252.745 414.335C254.345 414.335 255.641 414.823 256.633 415.799C257.625 416.759 258.121 418.151 258.121 419.975L258.121 427.727L255.961 427.727L255.961 420.287C255.961 418.975 255.633 417.975 254.977 417.287C254.321 416.583 253.425 416.231 252.289 416.231C251.137 416.231 250.217 416.591 249.529 417.311C248.857 418.031 248.521 419.079 248.521 420.455L248.521 427.727L246.337 427.727L246.337 414.575L248.521 414.575L248.521 416.447C248.953 415.775 249.537 415.255 250.273 414.887C251.025 414.519 251.849 414.335 252.745 414.335ZM272.743 427.943C271.735 427.943 270.831 427.775 270.031 427.439C269.231 427.087 268.599 426.607 268.135 425.999C267.671 425.375 267.415 424.663 267.367 423.863L269.623 423.863C269.687 424.519 269.991 425.055 270.535 425.471C271.095 425.887 271.823 426.095 272.719 426.095C273.551 426.095 274.207 425.911 274.687 425.543C275.167 425.175 275.407 424.711 275.407 424.151C275.407 423.575 275.151 423.151 274.639 422.879C274.127 422.591 273.335 422.311 272.263 422.039C271.287 421.783 270.487 421.527 269.863 421.271C269.255 420.999 268.727 420.607 268.279 420.095C267.847 419.567 267.631 418.879 267.631 418.031C267.631 417.359 267.831 416.743 268.231 416.183C268.631 415.623 269.199 415.183 269.935 414.863C270.671 414.527 271.511 414.359 272.455 414.359C273.911 414.359 275.087 414.727 275.983 415.463C276.879 416.199 277.359 417.207 277.423 418.487L275.239 418.487C275.191 417.799 274.911 417.247 274.399 416.831C273.903 416.415 273.231 416.207 272.383 416.207C271.599 416.207 270.975 416.375 270.511 416.711C270.047 417.047 269.815 417.487 269.815 418.031C269.815 418.463 269.951 418.823 270.223 419.111C270.511 419.383 270.863 419.607 271.279 419.783C271.711 419.943 272.303 420.127 273.055 420.335C273.999 420.591 274.767 420.847 275.359 421.103C275.951 421.343 276.455 421.711 276.871 422.207C277.303 422.703 277.527 423.351 277.543 424.151C277.543 424.871 277.343 425.519 276.943 426.095C276.543 426.671 275.975 427.127 275.239 427.463C274.519 427.783 273.687 427.943 272.743 427.943ZM286.362 427.943C285.13 427.943 284.01 427.663 283.002 427.103C282.01 426.543 281.226 425.751 280.65 424.727C280.09 423.687 279.81 422.487 279.81 421.127C279.81 419.783 280.098 418.599 280.674 417.575C281.266 416.535 282.066 415.743 283.074 415.199C284.082 414.639 285.21 414.359 286.458 414.359C287.706 414.359 288.834 414.639 289.842 415.199C290.85 415.743 291.642 416.527 292.218 417.551C292.81 418.575 293.106 419.767 293.106 421.127C293.106 422.487 292.802 423.687 292.194 424.727C291.602 425.751 290.794 426.543 289.77 427.103C288.746 427.663 287.61 427.943 286.362 427.943ZM286.362 426.023C287.146 426.023 287.882 425.839 288.57 425.471C289.258 425.103 289.81 424.551 290.226 423.815C290.658 423.079 290.874 422.183 290.874 421.127C290.874 420.071 290.666 419.175 290.25 418.439C289.834 417.703 289.29 417.159 288.618 416.807C287.946 416.439 287.218 416.255 286.434 416.255C285.634 416.255 284.898 416.439 284.226 416.807C283.57 417.159 283.042 417.703 282.642 418.439C282.242 419.175 282.042 420.071 282.042 421.127C282.042 422.199 282.234 423.103 282.618 423.839C283.018 424.575 283.546 425.127 284.202 425.495C284.858 425.847 285.578 426.023 286.362 426.023ZM307.641 414.575L307.641 427.727L305.457 427.727L305.457 425.783C305.041 426.455 304.457 426.983 303.705 427.367C302.969 427.735 302.153 427.919 301.257 427.919C300.233 427.919 299.313 427.711 298.497 427.295C297.681 426.863 297.033 426.223 296.553 425.375C296.089 424.527 295.857 423.495 295.857 422.279L295.857 414.575L298.017 414.575L298.017 421.991C298.017 423.287 298.345 424.287 299.001 424.991C299.657 425.679 300.553 426.023 301.689 426.023C302.857 426.023 303.777 425.663 304.449 424.943C305.121 424.223 305.457 423.175 305.457 421.799L305.457 414.575L307.641 414.575ZM313.513 416.711C313.897 415.959 314.441 415.375 315.145 414.959C315.865 414.543 316.737 414.335 317.761 414.335L317.761 416.591L317.185 416.591C314.737 416.591 313.513 417.919 313.513 420.575L313.513 427.727L311.329 427.727L311.329 414.575L313.513 414.575L313.513 416.711ZM319.466 421.127C319.466 419.767 319.738 418.583 320.282 417.575C320.826 416.551 321.578 415.759 322.538 415.199C323.514 414.639 324.626 414.359 325.874 414.359C327.49 414.359 328.818 414.751 329.858 415.535C330.914 416.319 331.61 417.407 331.946 418.799L329.594 418.799C329.37 417.999 328.93 417.367 328.274 416.903C327.634 416.439 326.834 416.207 325.874 416.207C324.626 416.207 323.618 416.639 322.85 417.503C322.082 418.351 321.698 419.559 321.698 421.127C321.698 422.711 322.082 423.935 322.85 424.799C323.618 425.663 324.626 426.095 325.874 426.095C326.834 426.095 327.634 425.871 328.274 425.423C328.914 424.975 329.354 424.335 329.594 423.503L331.946 423.503C331.594 424.847 330.89 425.927 329.834 426.743C328.778 427.543 327.458 427.943 325.874 427.943C324.626 427.943 323.514 427.663 322.538 427.103C321.578 426.543 320.826 425.751 320.282 424.727C319.738 423.703 319.466 422.503 319.466 421.127ZM346.86 420.647C346.86 421.063 346.836 421.503 346.788 421.967L336.276 421.967C336.356 423.263 336.796 424.279 337.596 425.015C338.412 425.735 339.396 426.095 340.548 426.095C341.492 426.095 342.276 425.879 342.9 425.447C343.54 424.999 343.988 424.407 344.244 423.671L346.596 423.671C346.244 424.935 345.54 425.967 344.484 426.767C343.428 427.551 342.116 427.943 340.548 427.943C339.3 427.943 338.18 427.663 337.188 427.103C336.212 426.543 335.444 425.751 334.884 424.727C334.324 423.687 334.044 422.487 334.044 421.127C334.044 419.767 334.316 418.575 334.86 417.551C335.404 416.527 336.164 415.743 337.14 415.199C338.132 414.639 339.268 414.359 340.548 414.359C341.796 414.359 342.9 414.631 343.86 415.175C344.82 415.719 345.556 416.471 346.068 417.431C346.596 418.375 346.86 419.447 346.86 420.647ZM344.604 420.191C344.604 419.359 344.42 418.647 344.052 418.055C343.684 417.447 343.18 416.991 342.54 416.687C341.916 416.367 341.22 416.207 340.452 416.207C339.348 416.207 338.404 416.559 337.62 417.263C336.852 417.967 336.412 418.943 336.3 420.191L344.604 420.191ZM350.439 427.871C350.023 427.871 349.671 427.727 349.383 427.439C349.095 427.151 348.951 426.799 348.951 426.383C348.951 425.967 349.095 425.615 349.383 425.327C349.671 425.039 350.023 424.895 350.439 424.895C350.839 424.895 351.175 425.039 351.447 425.327C351.735 425.615 351.879 425.967 351.879 426.383C351.879 426.799 351.735 427.151 351.447 427.439C351.175 427.727 350.839 427.871 350.439 427.871ZM369.557 419.111C370.165 419.207 370.717 419.455 371.213 419.855C371.725 420.255 372.125 420.751 372.413 421.343C372.717 421.935 372.869 422.567 372.869 423.239C372.869 424.087 372.653 424.855 372.221 425.543C371.789 426.215 371.157 426.751 370.325 427.151C369.509 427.535 368.541 427.727 367.421 427.727L361.181 427.727L361.181 410.999L367.181 410.999C368.317 410.999 369.285 411.191 370.085 411.575C370.885 411.943 371.485 412.447 371.885 413.087C372.285 413.727 372.485 414.447 372.485 415.247C372.485 416.239 372.213 417.063 371.669 417.719C371.141 418.359 370.437 418.823 369.557 419.111ZM363.365 418.223L367.037 418.223C368.061 418.223 368.853 417.983 369.413 417.503C369.973 417.023 370.253 416.359 370.253 415.511C370.253 414.663 369.973 413.999 369.413 413.519C368.853 413.039 368.045 412.799 366.989 412.799L363.365 412.799L363.365 418.223ZM367.229 425.927C368.317 425.927 369.165 425.671 369.773 425.159C370.381 424.647 370.685 423.935 370.685 423.023C370.685 422.095 370.365 421.367 369.725 420.839C369.085 420.295 368.229 420.023 367.157 420.023L363.365 420.023L363.365 425.927L367.229 425.927ZM387.899 420.647C387.899 421.063 387.875 421.503 387.827 421.967L377.315 421.967C377.395 423.263 377.835 424.279 378.635 425.015C379.451 425.735 380.435 426.095 381.587 426.095C382.531 426.095 383.315 425.879 383.939 425.447C384.579 424.999 385.027 424.407 385.283 423.671L387.635 423.671C387.283 424.935 386.579 425.967 385.523 426.767C384.467 427.551 383.155 427.943 381.587 427.943C380.339 427.943 379.219 427.663 378.227 427.103C377.251 426.543 376.483 425.751 375.923 424.727C375.363 423.687 375.083 422.487 375.083 421.127C375.083 419.767 375.355 418.575 375.899 417.551C376.443 416.527 377.203 415.743 378.179 415.199C379.171 414.639 380.307 414.359 381.587 414.359C382.835 414.359 383.939 414.631 384.899 415.175C385.859 415.719 386.595 416.471 387.107 417.431C387.635 418.375 387.899 419.447 387.899 420.647ZM385.643 420.191C385.643 419.359 385.459 418.647 385.091 418.055C384.723 417.447 384.219 416.991 383.579 416.687C382.955 416.367 382.259 416.207 381.491 416.207C380.387 416.207 379.443 416.559 378.659 417.263C377.891 417.967 377.451 418.943 377.339 420.191L385.643 420.191ZM399.365 416.999C399.797 416.247 400.437 415.623 401.285 415.127C402.149 414.615 403.149 414.359 404.285 414.359C405.453 414.359 406.509 414.639 407.453 415.199C408.413 415.759 409.165 416.551 409.709 417.575C410.253 418.583 410.525 419.759 410.525 421.103C410.525 422.431 410.253 423.615 409.709 424.655C409.165 425.695 408.413 426.503 407.453 427.079C406.509 427.655 405.453 427.943 404.285 427.943C403.165 427.943 402.173 427.695 401.309 427.199C400.461 426.687 399.813 426.055 399.365 425.303L399.365 433.967L397.181 433.967L397.181 414.575L399.365 414.575L399.365 416.999ZM408.293 421.103C408.293 420.111 408.093 419.247 407.693 418.511C407.293 417.775 406.749 417.215 406.061 416.831C405.389 416.447 404.645 416.255 403.829 416.255C403.029 416.255 402.285 416.455 401.597 416.855C400.925 417.239 400.381 417.807 399.965 418.559C399.565 419.295 399.365 420.151 399.365 421.127C399.365 422.119 399.565 422.991 399.965 423.743C400.381 424.479 400.925 425.047 401.597 425.447C402.285 425.831 403.029 426.023 403.829 426.023C404.645 426.023 405.389 425.831 406.061 425.447C406.749 425.047 407.293 424.479 407.693 423.743C408.093 422.991 408.293 422.111 408.293 421.103ZM412.583 421.103C412.583 419.759 412.855 418.583 413.399 417.575C413.943 416.551 414.687 415.759 415.631 415.199C416.591 414.639 417.655 414.359 418.823 414.359C419.975 414.359 420.975 414.607 421.823 415.103C422.671 415.599 423.303 416.223 423.719 416.975L423.719 414.575L425.927 414.575L425.927 427.727L423.719 427.727L423.719 425.279C423.287 426.047 422.639 426.687 421.775 427.199C420.927 427.695 419.935 427.943 418.799 427.943C417.631 427.943 416.575 427.655 415.631 427.079C414.687 426.503 413.943 425.695 413.399 424.655C412.855 423.615 412.583 422.431 412.583 421.103ZM423.719 421.127C423.719 420.135 423.519 419.271 423.119 418.535C422.719 417.799 422.175 417.239 421.487 416.855C420.815 416.455 420.071 416.255 419.255 416.255C418.439 416.255 417.695 416.447 417.023 416.831C416.351 417.215 415.815 417.775 415.415 418.511C415.015 419.247 414.815 420.111 414.815 421.103C414.815 422.111 415.015 422.991 415.415 423.743C415.815 424.479 416.351 425.047 417.023 425.447C417.695 425.831 418.439 426.023 419.255 426.023C420.071 426.023 420.815 425.831 421.487 425.447C422.175 425.047 422.719 424.479 423.119 423.743C423.519 422.991 423.719 422.119 423.719 421.127ZM431.802 416.711C432.186 415.959 432.73 415.375 433.434 414.959C434.154 414.543 435.026 414.335 436.05 414.335L436.05 416.591L435.474 416.591C433.026 416.591 431.802 417.919 431.802 420.575L431.802 427.727L429.618 427.727L429.618 414.575L431.802 414.575L431.802 416.711ZM441.235 416.375L441.235 424.127C441.235 424.767 441.371 425.223 441.643 425.495C441.915 425.751 442.387 425.879 443.059 425.879L444.667 425.879L444.667 427.727L442.699 427.727C441.483 427.727 440.571 427.447 439.963 426.887C439.355 426.327 439.051 425.407 439.051 424.127L439.051 416.375L437.347 416.375L437.347 414.575L439.051 414.575L439.051 411.263L441.235 411.263L441.235 414.575L444.667 414.575L444.667 416.375L441.235 416.375ZM459.448 427.943C458.216 427.943 457.096 427.663 456.088 427.103C455.096 426.543 454.312 425.751 453.736 424.727C453.176 423.687 452.896 422.487 452.896 421.127C452.896 419.783 453.184 418.599 453.76 417.575C454.352 416.535 455.152 415.743 456.16 415.199C457.168 414.639 458.296 414.359 459.544 414.359C460.792 414.359 461.92 414.639 462.928 415.199C463.936 415.743 464.728 416.527 465.304 417.551C465.896 418.575 466.192 419.767 466.192 421.127C466.192 422.487 465.888 423.687 465.28 424.727C464.688 425.751 463.88 426.543 462.856 427.103C461.832 427.663 460.696 427.943 459.448 427.943ZM459.448 426.023C460.232 426.023 460.968 425.839 461.656 425.471C462.344 425.103 462.896 424.551 463.312 423.815C463.744 423.079 463.96 422.183 463.96 421.127C463.96 420.071 463.752 419.175 463.336 418.439C462.92 417.703 462.376 417.159 461.704 416.807C461.032 416.439 460.304 416.255 459.52 416.255C458.72 416.255 457.984 416.439 457.312 416.807C456.656 417.159 456.128 417.703 455.728 418.439C455.328 419.175 455.128 420.071 455.128 421.127C455.128 422.199 455.32 423.103 455.704 423.839C456.104 424.575 456.632 425.127 457.288 425.495C457.944 425.847 458.664 426.023 459.448 426.023ZM474.415 416.375L471.655 416.375L471.655 427.727L469.471 427.727L469.471 416.375L467.767 416.375L467.767 414.575L469.471 414.575L469.471 413.639C469.471 412.167 469.847 411.095 470.599 410.423C471.367 409.735 472.591 409.391 474.271 409.391L474.271 411.215C473.311 411.215 472.631 411.407 472.231 411.791C471.847 412.159 471.655 412.775 471.655 413.639L471.655 414.575L474.415 414.575L474.415 416.375ZM484.488 412.439C484.072 412.439 483.72 412.295 483.432 412.007C483.144 411.719 483 411.367 483 410.951C483 410.535 483.144 410.183 483.432 409.895C483.72 409.607 484.072 409.463 484.488 409.463C484.888 409.463 485.224 409.607 485.496 409.895C485.784 410.183 485.928 410.535 485.928 410.951C485.928 411.367 485.784 411.719 485.496 412.007C485.224 412.295 484.888 412.439 484.488 412.439ZM485.544 414.575L485.544 427.727L483.36 427.727L483.36 414.575L485.544 414.575ZM491.93 416.375L491.93 424.127C491.93 424.767 492.066 425.223 492.338 425.495C492.61 425.751 493.082 425.879 493.754 425.879L495.362 425.879L495.362 427.727L493.394 427.727C492.178 427.727 491.266 427.447 490.658 426.887C490.05 426.327 489.746 425.407 489.746 424.127L489.746 416.375L488.042 416.375L488.042 414.575L489.746 414.575L489.746 411.263L491.93 411.263L491.93 414.575L495.362 414.575L495.362 416.375L491.93 416.375ZM510.143 427.943C508.911 427.943 507.791 427.663 506.783 427.103C505.791 426.543 505.007 425.751 504.431 424.727C503.871 423.687 503.591 422.487 503.591 421.127C503.591 419.783 503.879 418.599 504.455 417.575C505.047 416.535 505.847 415.743 506.855 415.199C507.863 414.639 508.991 414.359 510.239 414.359C511.487 414.359 512.615 414.639 513.623 415.199C514.631 415.743 515.423 416.527 515.999 417.551C516.591 418.575 516.887 419.767 516.887 421.127C516.887 422.487 516.583 423.687 515.975 424.727C515.383 425.751 514.575 426.543 513.551 427.103C512.527 427.663 511.391 427.943 510.143 427.943ZM510.143 426.023C510.927 426.023 511.663 425.839 512.351 425.471C513.039 425.103 513.591 424.551 514.007 423.815C514.439 423.079 514.655 422.183 514.655 421.127C514.655 420.071 514.447 419.175 514.031 418.439C513.615 417.703 513.071 417.159 512.399 416.807C511.727 416.439 510.999 416.255 510.215 416.255C509.415 416.255 508.679 416.439 508.007 416.807C507.351 417.159 506.823 417.703 506.423 418.439C506.023 419.175 505.823 420.071 505.823 421.127C505.823 422.199 506.015 423.103 506.399 423.839C506.799 424.575 507.327 425.127 507.983 425.495C508.639 425.847 509.359 426.023 510.143 426.023ZM521.943 416.711C522.327 415.959 522.871 415.375 523.575 414.959C524.295 414.543 525.167 414.335 526.191 414.335L526.191 416.591L525.615 416.591C523.167 416.591 521.943 417.919 521.943 420.575L521.943 427.727L519.759 427.727L519.759 414.575L521.943 414.575L521.943 416.711ZM55.6616 450.335C56.6536 450.335 57.5496 450.551 58.3496 450.983C59.1496 451.399 59.7736 452.031 60.2216 452.879C60.6856 453.727 60.9176 454.759 60.9176 455.975L60.9176 463.727L58.7576 463.727L58.7576 456.287C58.7576 454.975 58.4296 453.975 57.7736 453.287C57.1176 452.583 56.2216 452.231 55.0856 452.231C53.9336 452.231 53.0136 452.591 52.3256 453.311C51.6536 454.031 51.3176 455.079 51.3176 456.455L51.3176 463.727L49.1336 463.727L49.1336 445.967L51.3176 445.967L51.3176 452.447C51.7496 451.775 52.3416 451.255 53.0936 450.887C53.8616 450.519 54.7176 450.335 55.6616 450.335ZM76.4852 456.647C76.4852 457.063 76.4612 457.503 76.4132 457.967L65.9012 457.967C65.9812 459.263 66.4212 460.279 67.2212 461.015C68.0372 461.735 69.0212 462.095 70.1732 462.095C71.1172 462.095 71.9012 461.879 72.5252 461.447C73.1652 460.999 73.6132 460.407 73.8692 459.671L76.2212 459.671C75.8692 460.935 75.1652 461.967 74.1092 462.767C73.0532 463.551 71.7412 463.943 70.1732 463.943C68.9252 463.943 67.8052 463.663 66.8132 463.103C65.8372 462.543 65.0692 461.751 64.5092 460.727C63.9492 459.687 63.6692 458.487 63.6692 457.127C63.6692 455.767 63.9412 454.575 64.4852 453.551C65.0292 452.527 65.7892 451.743 66.7652 451.199C67.7572 450.639 68.8932 450.359 70.1732 450.359C71.4212 450.359 72.5252 450.631 73.4852 451.175C74.4452 451.719 75.1812 452.471 75.6932 453.431C76.2212 454.375 76.4852 455.447 76.4852 456.647ZM74.2292 456.191C74.2292 455.359 74.0452 454.647 73.6772 454.055C73.3092 453.447 72.8052 452.991 72.1652 452.687C71.5412 452.367 70.8452 452.207 70.0772 452.207C68.9732 452.207 68.0292 452.559 67.2452 453.263C66.4772 453.967 66.0372 454.943 65.9252 456.191L74.2292 456.191ZM81.552 445.967L81.552 463.727L79.368 463.727L79.368 445.967L81.552 445.967ZM87.4583 452.999C87.8903 452.247 88.5303 451.623 89.3783 451.127C90.2423 450.615 91.2423 450.359 92.3783 450.359C93.5463 450.359 94.6023 450.639 95.5463 451.199C96.5063 451.759 97.2583 452.551 97.8023 453.575C98.3463 454.583 98.6183 455.759 98.6183 457.103C98.6183 458.431 98.3463 459.615 97.8023 460.655C97.2583 461.695 96.5063 462.503 95.5463 463.079C94.6023 463.655 93.5463 463.943 92.3783 463.943C91.2583 463.943 90.2663 463.695 89.4023 463.199C88.5543 462.687 87.9063 462.055 87.4583 461.303L87.4583 469.967L85.2743 469.967L85.2743 450.575L87.4583 450.575L87.4583 452.999ZM96.3863 457.103C96.3863 456.111 96.1863 455.247 95.7863 454.511C95.3863 453.775 94.8423 453.215 94.1543 452.831C93.4823 452.447 92.7383 452.255 91.9223 452.255C91.1223 452.255 90.3783 452.455 89.6903 452.855C89.0183 453.239 88.4743 453.807 88.0583 454.559C87.6583 455.295 87.4583 456.151 87.4583 457.127C87.4583 458.119 87.6583 458.991 88.0583 459.743C88.4743 460.479 89.0183 461.047 89.6903 461.447C90.3783 461.831 91.1223 462.023 91.9223 462.023C92.7383 462.023 93.4823 461.831 94.1543 461.447C94.8423 461.047 95.3863 460.479 95.7863 459.743C96.1863 458.991 96.3863 458.111 96.3863 457.103ZM109.019 448.439C108.603 448.439 108.251 448.295 107.963 448.007C107.675 447.719 107.531 447.367 107.531 446.951C107.531 446.535 107.675 446.183 107.963 445.895C108.251 445.607 108.603 445.463 109.019 445.463C109.419 445.463 109.755 445.607 110.027 445.895C110.315 446.183 110.459 446.535 110.459 446.951C110.459 447.367 110.315 447.719 110.027 448.007C109.755 448.295 109.419 448.439 109.019 448.439ZM110.075 450.575L110.075 463.727L107.891 463.727L107.891 450.575L110.075 450.575ZM129.614 450.335C130.638 450.335 131.55 450.551 132.35 450.983C133.15 451.399 133.782 452.031 134.246 452.879C134.71 453.727 134.942 454.759 134.942 455.975L134.942 463.727L132.782 463.727L132.782 456.287C132.782 454.975 132.454 453.975 131.798 453.287C131.158 452.583 130.286 452.231 129.182 452.231C128.046 452.231 127.142 452.599 126.47 453.335C125.798 454.055 125.462 455.103 125.462 456.479L125.462 463.727L123.302 463.727L123.302 456.287C123.302 454.975 122.974 453.975 122.318 453.287C121.678 452.583 120.806 452.231 119.702 452.231C118.566 452.231 117.662 452.599 116.99 453.335C116.318 454.055 115.982 455.103 115.982 456.479L115.982 463.727L113.798 463.727L113.798 450.575L115.982 450.575L115.982 452.471C116.414 451.783 116.99 451.255 117.71 450.887C118.446 450.519 119.254 450.335 120.134 450.335C121.238 450.335 122.214 450.583 123.062 451.079C123.91 451.575 124.542 452.303 124.958 453.263C125.326 452.335 125.934 451.615 126.782 451.103C127.63 450.591 128.574 450.335 129.614 450.335ZM140.708 452.999C141.14 452.247 141.78 451.623 142.628 451.127C143.492 450.615 144.492 450.359 145.628 450.359C146.796 450.359 147.852 450.639 148.796 451.199C149.756 451.759 150.508 452.551 151.052 453.575C151.596 454.583 151.868 455.759 151.868 457.103C151.868 458.431 151.596 459.615 151.052 460.655C150.508 461.695 149.756 462.503 148.796 463.079C147.852 463.655 146.796 463.943 145.628 463.943C144.508 463.943 143.516 463.695 142.652 463.199C141.804 462.687 141.156 462.055 140.708 461.303L140.708 469.967L138.524 469.967L138.524 450.575L140.708 450.575L140.708 452.999ZM149.636 457.103C149.636 456.111 149.436 455.247 149.036 454.511C148.636 453.775 148.092 453.215 147.404 452.831C146.732 452.447 145.988 452.255 145.172 452.255C144.372 452.255 143.628 452.455 142.94 452.855C142.268 453.239 141.724 453.807 141.308 454.559C140.908 455.295 140.708 456.151 140.708 457.127C140.708 458.119 140.908 458.991 141.308 459.743C141.724 460.479 142.268 461.047 142.94 461.447C143.628 461.831 144.372 462.023 145.172 462.023C145.988 462.023 146.732 461.831 147.404 461.447C148.092 461.047 148.636 460.479 149.036 459.743C149.436 458.991 149.636 458.111 149.636 457.103ZM156.927 452.711C157.311 451.959 157.855 451.375 158.559 450.959C159.279 450.543 160.151 450.335 161.175 450.335L161.175 452.591L160.599 452.591C158.151 452.591 156.927 453.919 156.927 456.575L156.927 463.727L154.743 463.727L154.743 450.575L156.927 450.575L156.927 452.711ZM169.432 463.943C168.2 463.943 167.08 463.663 166.072 463.103C165.08 462.543 164.296 461.751 163.72 460.727C163.16 459.687 162.88 458.487 162.88 457.127C162.88 455.783 163.168 454.599 163.744 453.575C164.336 452.535 165.136 451.743 166.144 451.199C167.152 450.639 168.28 450.359 169.528 450.359C170.776 450.359 171.904 450.639 172.912 451.199C173.92 451.743 174.712 452.527 175.288 453.551C175.88 454.575 176.176 455.767 176.176 457.127C176.176 458.487 175.872 459.687 175.264 460.727C174.672 461.751 173.864 462.543 172.84 463.103C171.816 463.663 170.68 463.943 169.432 463.943ZM169.432 462.023C170.216 462.023 170.952 461.839 171.64 461.471C172.328 461.103 172.88 460.551 173.296 459.815C173.728 459.079 173.944 458.183 173.944 457.127C173.944 456.071 173.736 455.175 173.32 454.439C172.904 453.703 172.36 453.159 171.688 452.807C171.016 452.439 170.288 452.255 169.504 452.255C168.704 452.255 167.968 452.439 167.296 452.807C166.64 453.159 166.112 453.703 165.712 454.439C165.312 455.175 165.112 456.071 165.112 457.127C165.112 458.199 165.304 459.103 165.688 459.839C166.088 460.575 166.616 461.127 167.272 461.495C167.928 461.847 168.648 462.023 169.432 462.023ZM183.944 461.711L188.024 450.575L190.352 450.575L185.192 463.727L182.648 463.727L177.488 450.575L179.84 450.575L183.944 461.711ZM204.501 456.647C204.501 457.063 204.477 457.503 204.429 457.967L193.917 457.967C193.997 459.263 194.437 460.279 195.237 461.015C196.053 461.735 197.037 462.095 198.189 462.095C199.133 462.095 199.917 461.879 200.541 461.447C201.181 460.999 201.629 460.407 201.885 459.671L204.237 459.671C203.885 460.935 203.181 461.967 202.125 462.767C201.069 463.551 199.757 463.943 198.189 463.943C196.941 463.943 195.821 463.663 194.829 463.103C193.853 462.543 193.085 461.751 192.525 460.727C191.965 459.687 191.685 458.487 191.685 457.127C191.685 455.767 191.957 454.575 192.501 453.551C193.045 452.527 193.805 451.743 194.781 451.199C195.773 450.639 196.909 450.359 198.189 450.359C199.437 450.359 200.541 450.631 201.501 451.175C202.461 451.719 203.197 452.471 203.709 453.431C204.237 454.375 204.501 455.447 204.501 456.647ZM202.245 456.191C202.245 455.359 202.061 454.647 201.693 454.055C201.325 453.447 200.821 452.991 200.181 452.687C199.557 452.367 198.861 452.207 198.093 452.207C196.989 452.207 196.045 452.559 195.261 453.263C194.493 453.967 194.053 454.943 193.941 456.191L202.245 456.191ZM225.11 450.575L217.19 469.919L214.934 469.919L217.526 463.583L212.222 450.575L214.646 450.575L218.774 461.231L222.854 450.575L225.11 450.575ZM233.042 463.943C231.81 463.943 230.69 463.663 229.682 463.103C228.69 462.543 227.906 461.751 227.33 460.727C226.77 459.687 226.49 458.487 226.49 457.127C226.49 455.783 226.778 454.599 227.354 453.575C227.946 452.535 228.746 451.743 229.754 451.199C230.762 450.639 231.89 450.359 233.138 450.359C234.386 450.359 235.514 450.639 236.522 451.199C237.53 451.743 238.322 452.527 238.898 453.551C239.49 454.575 239.786 455.767 239.786 457.127C239.786 458.487 239.482 459.687 238.874 460.727C238.282 461.751 237.474 462.543 236.45 463.103C235.426 463.663 234.29 463.943 233.042 463.943ZM233.042 462.023C233.826 462.023 234.562 461.839 235.25 461.471C235.938 461.103 236.49 460.551 236.906 459.815C237.338 459.079 237.554 458.183 237.554 457.127C237.554 456.071 237.346 455.175 236.93 454.439C236.514 453.703 235.97 453.159 235.298 452.807C234.626 452.439 233.898 452.255 233.114 452.255C232.314 452.255 231.578 452.439 230.906 452.807C230.25 453.159 229.722 453.703 229.322 454.439C228.922 455.175 228.722 456.071 228.722 457.127C228.722 458.199 228.914 459.103 229.298 459.839C229.698 460.575 230.226 461.127 230.882 461.495C231.538 461.847 232.258 462.023 233.042 462.023ZM254.321 450.575L254.321 463.727L252.137 463.727L252.137 461.783C251.721 462.455 251.137 462.983 250.385 463.367C249.649 463.735 248.833 463.919 247.937 463.919C246.913 463.919 245.993 463.711 245.177 463.295C244.361 462.863 243.713 462.223 243.233 461.375C242.769 460.527 242.537 459.495 242.537 458.279L242.537 450.575L244.697 450.575L244.697 457.991C244.697 459.287 245.025 460.287 245.681 460.991C246.337 461.679 247.233 462.023 248.369 462.023C249.537 462.023 250.457 461.663 251.129 460.943C251.801 460.223 252.137 459.175 252.137 457.799L252.137 450.575L254.321 450.575ZM260.193 452.711C260.577 451.959 261.121 451.375 261.825 450.959C262.545 450.543 263.417 450.335 264.441 450.335L264.441 452.591L263.865 452.591C261.417 452.591 260.193 453.919 260.193 456.575L260.193 463.727L258.009 463.727L258.009 450.575L260.193 450.575L260.193 452.711ZM278.712 452.375L275.952 452.375L275.952 463.727L273.768 463.727L273.768 452.375L272.064 452.375L272.064 450.575L273.768 450.575L273.768 449.639C273.768 448.167 274.144 447.095 274.896 446.423C275.664 445.735 276.888 445.391 278.568 445.391L278.568 447.215C277.608 447.215 276.928 447.407 276.528 447.791C276.144 448.159 275.952 448.775 275.952 449.639L275.952 450.575L278.712 450.575L278.712 452.375ZM280.443 457.103C280.443 455.759 280.715 454.583 281.259 453.575C281.803 452.551 282.547 451.759 283.491 451.199C284.451 450.639 285.515 450.359 286.683 450.359C287.835 450.359 288.835 450.607 289.683 451.103C290.531 451.599 291.163 452.223 291.579 452.975L291.579 450.575L293.787 450.575L293.787 463.727L291.579 463.727L291.579 461.279C291.147 462.047 290.499 462.687 289.635 463.199C288.787 463.695 287.795 463.943 286.659 463.943C285.491 463.943 284.435 463.655 283.491 463.079C282.547 462.503 281.803 461.695 281.259 460.655C280.715 459.615 280.443 458.431 280.443 457.103ZM291.579 457.127C291.579 456.135 291.379 455.271 290.979 454.535C290.579 453.799 290.035 453.239 289.347 452.855C288.675 452.455 287.931 452.255 287.115 452.255C286.299 452.255 285.555 452.447 284.883 452.831C284.211 453.215 283.675 453.775 283.275 454.511C282.875 455.247 282.675 456.111 282.675 457.103C282.675 458.111 282.875 458.991 283.275 459.743C283.675 460.479 284.211 461.047 284.883 461.447C285.555 461.831 286.299 462.023 287.115 462.023C287.931 462.023 288.675 461.831 289.347 461.447C290.035 461.047 290.579 460.479 290.979 459.743C291.379 458.991 291.579 458.119 291.579 457.127ZM302.373 461.711L306.453 450.575L308.781 450.575L303.621 463.727L301.077 463.727L295.917 450.575L298.269 450.575L302.373 461.711ZM316.667 463.943C315.435 463.943 314.315 463.663 313.307 463.103C312.315 462.543 311.531 461.751 310.955 460.727C310.395 459.687 310.115 458.487 310.115 457.127C310.115 455.783 310.403 454.599 310.979 453.575C311.571 452.535 312.371 451.743 313.379 451.199C314.387 450.639 315.515 450.359 316.763 450.359C318.011 450.359 319.139 450.639 320.147 451.199C321.155 451.743 321.947 452.527 322.523 453.551C323.115 454.575 323.411 455.767 323.411 457.127C323.411 458.487 323.107 459.687 322.499 460.727C321.907 461.751 321.099 462.543 320.075 463.103C319.051 463.663 317.915 463.943 316.667 463.943ZM316.667 462.023C317.451 462.023 318.187 461.839 318.875 461.471C319.563 461.103 320.115 460.551 320.531 459.815C320.963 459.079 321.179 458.183 321.179 457.127C321.179 456.071 320.971 455.175 320.555 454.439C320.139 453.703 319.595 453.159 318.923 452.807C318.251 452.439 317.523 452.255 316.739 452.255C315.939 452.255 315.203 452.439 314.531 452.807C313.875 453.159 313.347 453.703 312.947 454.439C312.547 455.175 312.347 456.071 312.347 457.127C312.347 458.199 312.539 459.103 312.923 459.839C313.323 460.575 313.851 461.127 314.507 461.495C315.163 461.847 315.883 462.023 316.667 462.023ZM328.466 452.711C328.85 451.959 329.394 451.375 330.098 450.959C330.818 450.543 331.69 450.335 332.714 450.335L332.714 452.591L332.138 452.591C329.69 452.591 328.466 453.919 328.466 456.575L328.466 463.727L326.282 463.727L326.282 450.575L328.466 450.575L328.466 452.711ZM336.363 448.439C335.947 448.439 335.595 448.295 335.307 448.007C335.019 447.719 334.875 447.367 334.875 446.951C334.875 446.535 335.019 446.183 335.307 445.895C335.595 445.607 335.947 445.463 336.363 445.463C336.763 445.463 337.099 445.607 337.371 445.895C337.659 446.183 337.803 446.535 337.803 446.951C337.803 447.367 337.659 447.719 337.371 448.007C337.099 448.295 336.763 448.439 336.363 448.439ZM337.419 450.575L337.419 463.727L335.235 463.727L335.235 450.575L337.419 450.575ZM343.805 452.375L343.805 460.127C343.805 460.767 343.941 461.223 344.213 461.495C344.485 461.751 344.957 461.879 345.629 461.879L347.237 461.879L347.237 463.727L345.269 463.727C344.053 463.727 343.141 463.447 342.533 462.887C341.925 462.327 341.621 461.407 341.621 460.127L341.621 452.375L339.917 452.375L339.917 450.575L341.621 450.575L341.621 447.263L343.805 447.263L343.805 450.575L347.237 450.575L347.237 452.375L343.805 452.375ZM361.884 456.647C361.884 457.063 361.86 457.503 361.812 457.967L351.3 457.967C351.38 459.263 351.82 460.279 352.62 461.015C353.436 461.735 354.42 462.095 355.572 462.095C356.516 462.095 357.3 461.879 357.924 461.447C358.564 460.999 359.012 460.407 359.268 459.671L361.62 459.671C361.268 460.935 360.564 461.967 359.508 462.767C358.452 463.551 357.14 463.943 355.572 463.943C354.324 463.943 353.204 463.663 352.212 463.103C351.236 462.543 350.468 461.751 349.908 460.727C349.348 459.687 349.068 458.487 349.068 457.127C349.068 455.767 349.34 454.575 349.884 453.551C350.428 452.527 351.188 451.743 352.164 451.199C353.156 450.639 354.292 450.359 355.572 450.359C356.82 450.359 357.924 450.631 358.884 451.175C359.844 451.719 360.58 452.471 361.092 453.431C361.62 454.375 361.884 455.447 361.884 456.647ZM359.628 456.191C359.628 455.359 359.444 454.647 359.076 454.055C358.708 453.447 358.204 452.991 357.564 452.687C356.94 452.367 356.244 452.207 355.476 452.207C354.372 452.207 353.428 452.559 352.644 453.263C351.876 453.967 351.436 454.943 351.324 456.191L359.628 456.191ZM373.829 452.375L373.829 460.127C373.829 460.767 373.965 461.223 374.237 461.495C374.509 461.751 374.981 461.879 375.653 461.879L377.261 461.879L377.261 463.727L375.293 463.727C374.077 463.727 373.165 463.447 372.557 462.887C371.949 462.327 371.645 461.407 371.645 460.127L371.645 452.375L369.941 452.375L369.941 450.575L371.645 450.575L371.645 447.263L373.829 447.263L373.829 450.575L377.261 450.575L377.261 452.375L373.829 452.375ZM391.907 456.647C391.907 457.063 391.883 457.503 391.835 457.967L381.323 457.967C381.403 459.263 381.843 460.279 382.643 461.015C383.459 461.735 384.443 462.095 385.595 462.095C386.539 462.095 387.323 461.879 387.947 461.447C388.587 460.999 389.035 460.407 389.291 459.671L391.643 459.671C391.291 460.935 390.587 461.967 389.531 462.767C388.475 463.551 387.163 463.943 385.595 463.943C384.347 463.943 383.227 463.663 382.235 463.103C381.259 462.543 380.491 461.751 379.931 460.727C379.371 459.687 379.091 458.487 379.091 457.127C379.091 455.767 379.363 454.575 379.907 453.551C380.451 452.527 381.211 451.743 382.187 451.199C383.179 450.639 384.315 450.359 385.595 450.359C386.843 450.359 387.947 450.631 388.907 451.175C389.867 451.719 390.603 452.471 391.115 453.431C391.643 454.375 391.907 455.447 391.907 456.647ZM389.651 456.191C389.651 455.359 389.467 454.647 389.099 454.055C388.731 453.447 388.227 452.991 387.587 452.687C386.963 452.367 386.267 452.207 385.499 452.207C384.395 452.207 383.451 452.559 382.667 453.263C381.899 453.967 381.459 454.943 381.347 456.191L389.651 456.191ZM401.654 463.727L398.534 458.831L395.534 463.727L393.254 463.727L397.502 457.199L393.254 450.575L395.726 450.575L398.846 455.447L401.822 450.575L404.102 450.575L399.878 457.079L404.126 463.727L401.654 463.727ZM408.938 452.375L408.938 460.127C408.938 460.767 409.074 461.223 409.346 461.495C409.618 461.751 410.09 461.879 410.762 461.879L412.37 461.879L412.37 463.727L410.402 463.727C409.186 463.727 408.274 463.447 407.666 462.887C407.058 462.327 406.754 461.407 406.754 460.127L406.754 452.375L405.05 452.375L405.05 450.575L406.754 450.575L406.754 447.263L408.938 447.263L408.938 450.575L412.37 450.575L412.37 452.375L408.938 452.375ZM433.415 456.647C433.415 457.063 433.391 457.503 433.343 457.967L422.831 457.967C422.911 459.263 423.351 460.279 424.151 461.015C424.967 461.735 425.951 462.095 427.103 462.095C428.047 462.095 428.831 461.879 429.455 461.447C430.095 460.999 430.543 460.407 430.799 459.671L433.151 459.671C432.799 460.935 432.095 461.967 431.039 462.767C429.983 463.551 428.671 463.943 427.103 463.943C425.855 463.943 424.735 463.663 423.743 463.103C422.767 462.543 421.999 461.751 421.439 460.727C420.879 459.687 420.599 458.487 420.599 457.127C420.599 455.767 420.871 454.575 421.415 453.551C421.959 452.527 422.719 451.743 423.695 451.199C424.687 450.639 425.823 450.359 427.103 450.359C428.351 450.359 429.455 450.631 430.415 451.175C431.375 451.719 432.111 452.471 432.623 453.431C433.151 454.375 433.415 455.447 433.415 456.647ZM431.159 456.191C431.159 455.359 430.975 454.647 430.607 454.055C430.239 453.447 429.735 452.991 429.095 452.687C428.471 452.367 427.775 452.207 427.007 452.207C425.903 452.207 424.959 452.559 424.175 453.263C423.407 453.967 422.967 454.943 422.855 456.191L431.159 456.191ZM435.482 457.103C435.482 455.759 435.754 454.583 436.298 453.575C436.842 452.551 437.586 451.759 438.53 451.199C439.49 450.639 440.562 450.359 441.746 450.359C442.77 450.359 443.722 450.599 444.602 451.079C445.482 451.543 446.154 452.159 446.618 452.927L446.618 445.967L448.826 445.967L448.826 463.727L446.618 463.727L446.618 461.255C446.186 462.039 445.546 462.687 444.698 463.199C443.85 463.695 442.858 463.943 441.722 463.943C440.554 463.943 439.49 463.655 438.53 463.079C437.586 462.503 436.842 461.695 436.298 460.655C435.754 459.615 435.482 458.431 435.482 457.103ZM446.618 457.127C446.618 456.135 446.418 455.271 446.018 454.535C445.618 453.799 445.074 453.239 444.386 452.855C443.714 452.455 442.97 452.255 442.154 452.255C441.338 452.255 440.594 452.447 439.922 452.831C439.25 453.215 438.714 453.775 438.314 454.511C437.914 455.247 437.714 456.111 437.714 457.103C437.714 458.111 437.914 458.991 438.314 459.743C438.714 460.479 439.25 461.047 439.922 461.447C440.594 461.831 441.338 462.023 442.154 462.023C442.97 462.023 443.714 461.831 444.386 461.447C445.074 461.047 445.618 460.479 446.018 459.743C446.418 458.991 446.618 458.119 446.618 457.127ZM453.644 448.439C453.228 448.439 452.876 448.295 452.588 448.007C452.3 447.719 452.156 447.367 452.156 446.951C452.156 446.535 452.3 446.183 452.588 445.895C452.876 445.607 453.228 445.463 453.644 445.463C454.044 445.463 454.38 445.607 454.652 445.895C454.94 446.183 455.084 446.535 455.084 446.951C455.084 447.367 454.94 447.719 454.652 448.007C454.38 448.295 454.044 448.439 453.644 448.439ZM454.7 450.575L454.7 463.727L452.516 463.727L452.516 450.575L454.7 450.575ZM461.087 452.375L461.087 460.127C461.087 460.767 461.223 461.223 461.495 461.495C461.767 461.751 462.239 461.879 462.911 461.879L464.519 461.879L464.519 463.727L462.551 463.727C461.335 463.727 460.423 463.447 459.815 462.887C459.207 462.327 458.903 461.407 458.903 460.127L458.903 452.375L457.199 452.375L457.199 450.575L458.903 450.575L458.903 447.263L461.087 447.263L461.087 450.575L464.519 450.575L464.519 452.375L461.087 452.375ZM472.901 463.943C471.669 463.943 470.549 463.663 469.541 463.103C468.549 462.543 467.765 461.751 467.189 460.727C466.629 459.687 466.349 458.487 466.349 457.127C466.349 455.783 466.637 454.599 467.213 453.575C467.805 452.535 468.605 451.743 469.613 451.199C470.621 450.639 471.749 450.359 472.997 450.359C474.245 450.359 475.373 450.639 476.381 451.199C477.389 451.743 478.181 452.527 478.757 453.551C479.349 454.575 479.645 455.767 479.645 457.127C479.645 458.487 479.341 459.687 478.733 460.727C478.141 461.751 477.333 462.543 476.309 463.103C475.285 463.663 474.149 463.943 472.901 463.943ZM472.901 462.023C473.685 462.023 474.421 461.839 475.109 461.471C475.797 461.103 476.349 460.551 476.765 459.815C477.197 459.079 477.413 458.183 477.413 457.127C477.413 456.071 477.205 455.175 476.789 454.439C476.373 453.703 475.829 453.159 475.157 452.807C474.485 452.439 473.757 452.255 472.973 452.255C472.173 452.255 471.437 452.439 470.765 452.807C470.109 453.159 469.581 453.703 469.181 454.439C468.781 455.175 468.581 456.071 468.581 457.127C468.581 458.199 468.773 459.103 469.157 459.839C469.557 460.575 470.085 461.127 470.741 461.495C471.397 461.847 472.117 462.023 472.901 462.023ZM484.7 452.711C485.084 451.959 485.628 451.375 486.332 450.959C487.052 450.543 487.924 450.335 488.948 450.335L488.948 452.591L488.372 452.591C485.924 452.591 484.7 453.919 484.7 456.575L484.7 463.727L482.516 463.727L482.516 450.575L484.7 450.575L484.7 452.711ZM492.166 463.871C491.75 463.871 491.398 463.727 491.11 463.439C490.822 463.151 490.678 462.799 490.678 462.383C490.678 461.967 490.822 461.615 491.11 461.327C491.398 461.039 491.75 460.895 492.166 460.895C492.566 460.895 492.902 461.039 493.174 461.327C493.462 461.615 493.606 461.967 493.606 462.383C493.606 462.799 493.462 463.151 493.174 463.439C492.902 463.727 492.566 463.871 492.166 463.871Z" fill="#F0F0F0"/>
<g clip-path="url(#clip1_104_729)">
<path d="M264.005 543.233C259.006 543.231 254.169 545.008 250.36 548.247C246.552 551.486 244.02 555.975 243.22 560.91C242.419 565.845 243.402 570.904 245.991 575.181C248.581 579.457 252.608 582.673 257.352 584.251C258.404 584.446 258.791 583.793 258.791 583.238C258.791 582.735 258.77 581.078 258.762 579.321C252.906 580.594 251.672 576.837 251.672 576.837C250.714 574.403 249.336 573.756 249.336 573.756C247.426 572.449 249.48 572.478 249.48 572.478C251.593 572.625 252.706 574.646 252.706 574.646C254.584 577.863 257.631 576.932 258.83 576.395C259.02 575.035 259.564 574.106 260.167 573.58C255.492 573.049 250.577 571.244 250.577 563.178C250.577 560.881 251.401 559.002 252.745 557.529C252.527 556.998 251.806 554.859 252.948 551.96C252.948 551.96 254.716 551.394 258.738 554.117C260.455 553.65 262.226 553.412 264.005 553.409C265.794 553.417 267.596 553.651 269.278 554.117C273.295 551.394 275.06 551.96 275.06 551.96C276.205 554.859 275.486 557 275.268 557.529C276.618 559.002 277.433 560.881 277.433 563.178C277.433 571.262 272.508 573.041 267.823 573.562C268.578 574.214 269.251 575.495 269.251 577.458C269.251 580.273 269.228 582.541 269.228 583.233C269.228 583.793 269.606 584.448 270.675 584.243C275.418 582.663 279.444 579.446 282.031 575.169C284.619 570.891 285.6 565.833 284.798 560.898C283.995 555.963 281.463 551.476 277.654 548.238C273.845 545 269.007 543.224 264.008 543.228L264.005 543.233Z" fill="white"/>
</g>
<mask id="mask0_104_729" style="mask-type:alpha" maskUnits="userSpaceOnUse" x="205" y="-18" width="275" height="275">
<circle cx="342.973" cy="119.727" r="137" fill="white" fill-opacity="0.5"/>
</mask>
<g mask="url(#mask0_104_729)">
<circle cx="210.594" cy="100.42" r="6.00476" fill="white" fill-opacity="0.5"/>
<circle cx="210.594" cy="137.65" r="6.00476" fill="white" fill-opacity="0.5"/>
<circle cx="210.594" cy="174.879" r="6.00476" fill="white" fill-opacity="0.5"/>
<circle cx="210.594" cy="212.109" r="6.00476" fill="white" fill-opacity="0.5"/>
<circle cx="210.594" cy="249.338" r="6.00476" fill="white" fill-opacity="0.5"/>
<circle cx="244.221" cy="100.42" r="6.00476" fill="white" fill-opacity="0.5"/>
<circle cx="244.221" cy="137.65" r="6.00476" fill="white" fill-opacity="0.5"/>
<circle cx="244.221" cy="174.879" r="6.00476" fill="white" fill-opacity="0.5"/>
<circle cx="244.221" cy="212.109" r="6.00476" fill="white" fill-opacity="0.5"/>
<circle cx="244.221" cy="249.338" r="6.00476" fill="white" fill-opacity="0.5"/>
<circle cx="277.847" cy="100.42" r="6.00476" fill="white" fill-opacity="0.5"/>
<circle cx="277.847" cy="137.65" r="6.00476" fill="white" fill-opacity="0.5"/>
<circle cx="277.847" cy="174.879" r="6.00476" fill="white" fill-opacity="0.5"/>
<circle cx="277.847" cy="212.109" r="6.00476" fill="white" fill-opacity="0.5"/>
<circle cx="277.847" cy="249.338" r="6.00476" fill="white" fill-opacity="0.5"/>
<circle cx="311.474" cy="100.42" r="6.00476" fill="white" fill-opacity="0.5"/>
<circle cx="311.474" cy="137.65" r="6.00476" fill="white" fill-opacity="0.5"/>
<circle cx="311.474" cy="174.879" r="6.00476" fill="white" fill-opacity="0.5"/>
<circle cx="311.474" cy="212.109" r="6.00476" fill="white" fill-opacity="0.5"/>
<circle cx="311.474" cy="249.338" r="6.00476" fill="white" fill-opacity="0.5"/>
<circle cx="345.101" cy="100.42" r="6.00476" fill="white" fill-opacity="0.5"/>
<circle cx="345.101" cy="137.65" r="6.00476" fill="white" fill-opacity="0.5"/>
<circle cx="345.101" cy="174.879" r="6.00476" fill="white" fill-opacity="0.5"/>
<circle cx="345.101" cy="212.109" r="6.00476" fill="white" fill-opacity="0.5"/>
<circle cx="345.101" cy="249.338" r="6.00476" fill="white" fill-opacity="0.5"/>
<circle cx="378.727" cy="100.42" r="6.00476" fill="white" fill-opacity="0.5"/>
<circle cx="378.727" cy="137.65" r="6.00476" fill="white" fill-opacity="0.5"/>
<circle cx="378.727" cy="174.879" r="6.00476" fill="white" fill-opacity="0.5"/>
<circle cx="378.727" cy="212.109" r="6.00476" fill="white" fill-opacity="0.5"/>
<circle cx="378.727" cy="249.338" r="6.00476" fill="white" fill-opacity="0.5"/>
<circle cx="412.354" cy="100.42" r="6.00476" fill="white" fill-opacity="0.5"/>
<circle cx="412.354" cy="137.65" r="6.00476" fill="white" fill-opacity="0.5"/>
<circle cx="412.354" cy="174.879" r="6.00476" fill="white" fill-opacity="0.5"/>
<circle cx="412.354" cy="212.109" r="6.00476" fill="white" fill-opacity="0.5"/>
<circle cx="412.354" cy="249.338" r="6.00476" fill="white" fill-opacity="0.5"/>
<circle cx="445.981" cy="100.42" r="6.00476" fill="white" fill-opacity="0.5"/>
<circle cx="445.981" cy="137.65" r="6.00476" fill="white" fill-opacity="0.5"/>
<circle cx="445.981" cy="174.879" r="6.00476" fill="white" fill-opacity="0.5"/>
<circle cx="445.981" cy="212.109" r="6.00476" fill="white" fill-opacity="0.5"/>
<circle cx="445.981" cy="249.338" r="6.00476" fill="white" fill-opacity="0.5"/>
<circle cx="479.607" cy="100.42" r="6.00476" fill="white" fill-opacity="0.5"/>
<circle cx="479.607" cy="137.65" r="6.00476" fill="white" fill-opacity="0.5"/>
<circle cx="479.607" cy="174.879" r="6.00476" fill="white" fill-opacity="0.5"/>
<circle cx="479.607" cy="212.109" r="6.00476" fill="white" fill-opacity="0.5"/>
<circle cx="479.607" cy="249.338" r="6.00476" fill="white" fill-opacity="0.5"/>
</g>
</g>
</g>
<g filter="url(#filter1_d_104_729)">
<g clip-path="url(#clip2_104_729)">
<rect width="1166.91" height="562.662" rx="11" transform="matrix(-0.874908 0.48429 0.489656 0.871916 396.91 35.7275)" fill="#558EB4"/>
<mask id="mask1_104_729" style="mask-type:alpha" maskUnits="userSpaceOnUse" x="214" y="-65" width="275" height="274">
<circle cx="351.801" cy="72" r="137" fill="white" fill-opacity="0.5"/>
</mask>
<g mask="url(#mask1_104_729)">
<circle cx="219.422" cy="52.6934" r="6.00476" fill="white" fill-opacity="0.5"/>
<circle cx="219.422" cy="89.9229" r="6.00476" fill="white" fill-opacity="0.5"/>
<circle cx="219.422" cy="127.152" r="6.00476" fill="white" fill-opacity="0.5"/>
<circle cx="219.422" cy="164.382" r="6.00476" fill="white" fill-opacity="0.5"/>
<circle cx="219.422" cy="201.611" r="6.00476" fill="white" fill-opacity="0.5"/>
<circle cx="253.049" cy="52.6934" r="6.00476" fill="white" fill-opacity="0.5"/>
<circle cx="253.049" cy="89.9229" r="6.00476" fill="white" fill-opacity="0.5"/>
<circle cx="253.049" cy="127.152" r="6.00476" fill="white" fill-opacity="0.5"/>
<circle cx="253.049" cy="164.382" r="6.00476" fill="white" fill-opacity="0.5"/>
<circle cx="253.049" cy="201.611" r="6.00476" fill="white" fill-opacity="0.5"/>
<circle cx="286.675" cy="52.6934" r="6.00476" fill="white" fill-opacity="0.5"/>
<circle cx="286.675" cy="89.9229" r="6.00476" fill="white" fill-opacity="0.5"/>
<circle cx="286.675" cy="127.152" r="6.00476" fill="white" fill-opacity="0.5"/>
<circle cx="286.675" cy="164.382" r="6.00476" fill="white" fill-opacity="0.5"/>
<circle cx="286.675" cy="201.611" r="6.00476" fill="white" fill-opacity="0.5"/>
<circle cx="320.302" cy="52.6934" r="6.00476" fill="white" fill-opacity="0.5"/>
<circle cx="320.302" cy="89.9229" r="6.00476" fill="white" fill-opacity="0.5"/>
<circle cx="320.302" cy="127.152" r="6.00476" fill="white" fill-opacity="0.5"/>
<circle cx="320.302" cy="164.382" r="6.00476" fill="white" fill-opacity="0.5"/>
<circle cx="320.302" cy="201.611" r="6.00476" fill="white" fill-opacity="0.5"/>
<circle cx="353.929" cy="52.6934" r="6.00476" fill="white" fill-opacity="0.5"/>
<circle cx="353.929" cy="89.9229" r="6.00476" fill="white" fill-opacity="0.5"/>
<circle cx="353.929" cy="127.152" r="6.00476" fill="white" fill-opacity="0.5"/>
<circle cx="353.929" cy="164.382" r="6.00476" fill="white" fill-opacity="0.5"/>
<circle cx="353.929" cy="201.611" r="6.00476" fill="white" fill-opacity="0.5"/>
<circle cx="387.555" cy="52.6934" r="6.00476" fill="white" fill-opacity="0.5"/>
<circle cx="387.555" cy="89.9229" r="6.00476" fill="white" fill-opacity="0.5"/>
<circle cx="387.555" cy="127.152" r="6.00476" fill="white" fill-opacity="0.5"/>
<circle cx="387.555" cy="164.382" r="6.00476" fill="white" fill-opacity="0.5"/>
<circle cx="387.555" cy="201.611" r="6.00476" fill="white" fill-opacity="0.5"/>
<circle cx="421.182" cy="52.6934" r="6.00476" fill="white" fill-opacity="0.5"/>
<circle cx="421.182" cy="89.9229" r="6.00476" fill="white" fill-opacity="0.5"/>
<circle cx="421.182" cy="127.152" r="6.00476" fill="white" fill-opacity="0.5"/>
<circle cx="421.182" cy="164.382" r="6.00476" fill="white" fill-opacity="0.5"/>
<circle cx="421.182" cy="201.611" r="6.00476" fill="white" fill-opacity="0.5"/>
<circle cx="454.809" cy="52.6934" r="6.00476" fill="white" fill-opacity="0.5"/>
<circle cx="454.809" cy="89.9229" r="6.00476" fill="white" fill-opacity="0.5"/>
<circle cx="454.809" cy="127.152" r="6.00476" fill="white" fill-opacity="0.5"/>
<circle cx="454.809" cy="164.382" r="6.00476" fill="white" fill-opacity="0.5"/>
<circle cx="454.809" cy="201.611" r="6.00476" fill="white" fill-opacity="0.5"/>
<circle cx="488.435" cy="52.6934" r="6.00476" fill="white" fill-opacity="0.5"/>
<circle cx="488.435" cy="89.9229" r="6.00476" fill="white" fill-opacity="0.5"/>
<circle cx="488.435" cy="127.152" r="6.00476" fill="white" fill-opacity="0.5"/>
<circle cx="488.435" cy="164.382" r="6.00476" fill="white" fill-opacity="0.5"/>
<circle cx="488.435" cy="201.611" r="6.00476" fill="white" fill-opacity="0.5"/>
</g>
</g>
</g>
<defs>
<filter id="filter0_d_104_729" x="-657.855" y="58.4543" width="1346.45" height="1105.72" filterUnits="userSpaceOnUse" color-interpolation-filters="sRGB">
<feFlood flood-opacity="0" result="BackgroundImageFix"/>
<feColorMatrix in="SourceAlpha" type="matrix" values="0 0 0 0 0 0 0 0 0 0 0 0 0 0 0 0 0 0 127 0" result="hardAlpha"/>
<feMorphology radius="5" operator="dilate" in="SourceAlpha" result="effect1_dropShadow_104_729"/>
<feOffset/>
<feGaussianBlur stdDeviation="10"/>
<feColorMatrix type="matrix" values="0 0 0 0 0 0 0 0 0 0 0 0 0 0 0 0 0 0 0.25 0"/>
<feBlend mode="normal" in2="BackgroundImageFix" result="effect1_dropShadow_104_729"/>
<feBlend mode="normal" in="SourceGraphic" in2="effect1_dropShadow_104_729" result="shape"/>
</filter>
<filter id="filter1_d_104_729" x="-649.027" y="10.7275" width="1346.45" height="1105.72" filterUnits="userSpaceOnUse" color-interpolation-filters="sRGB">
<feFlood flood-opacity="0" result="BackgroundImageFix"/>
<feColorMatrix in="SourceAlpha" type="matrix" values="0 0 0 0 0 0 0 0 0 0 0 0 0 0 0 0 0 0 127 0" result="hardAlpha"/>
<feMorphology radius="5" operator="dilate" in="SourceAlpha" result="effect1_dropShadow_104_729"/>
<feOffset/>
<feGaussianBlur stdDeviation="10"/>
<feColorMatrix type="matrix" values="0 0 0 0 0 0 0 0 0 0 0 0 0 0 0 0 0 0 0.25 0"/>
<feBlend mode="normal" in2="BackgroundImageFix" result="effect1_dropShadow_104_729"/>
<feBlend mode="normal" in="SourceGraphic" in2="effect1_dropShadow_104_729" result="shape"/>
</filter>
<clipPath id="clip0_104_729">
<rect width="1166.91" height="562.662" rx="11" transform="matrix(-0.874908 0.48429 0.489656 0.871916 388.082 83.4543)" fill="white"/>
</clipPath>
<clipPath id="clip1_104_729">
<rect width="42.0939" height="42.0939" fill="white" transform="translate(242.958 542.712)"/>
</clipPath>
<clipPath id="clip2_104_729">
<rect width="1166.91" height="562.662" rx="11" transform="matrix(-0.874908 0.48429 0.489656 0.871916 396.91 35.7275)" fill="white"/>
</clipPath>
</defs>
</svg>
