<svg width="43" height="43" viewBox="0 0 43 43" fill="none" xmlns="http://www.w3.org/2000/svg">
<g clip-path="url(#clip0_104_792)">
<path d="M42.094 9.30795C40.5201 10.009 38.8488 10.4668 37.1374 10.6655C38.9401 9.58507 40.2899 7.88759 40.9364 5.88782C39.2409 6.89252 37.3869 7.60156 35.4536 7.98462C34.6447 7.12367 33.6676 6.43799 32.5828 5.97006C31.4981 5.50213 30.3288 5.26192 29.1474 5.2643C27.8462 5.26294 26.5614 5.55589 25.3894 6.12124C24.2173 6.68658 23.1883 7.50968 22.3794 8.52893C21.5704 9.54818 21.0024 10.7372 20.7179 12.007C20.4334 13.2768 20.4398 14.5945 20.7365 15.8614C17.3025 15.6889 13.9431 14.7961 10.8765 13.241C7.80982 11.686 5.10449 9.50336 2.93608 6.83493C1.83149 8.73532 1.49277 10.9853 1.98889 13.1266C2.48501 15.268 3.77865 17.1398 5.60641 18.3608C4.23481 18.3164 2.89324 17.9477 1.69168 17.2847V17.3926C1.6912 19.3873 2.38113 21.3207 3.64432 22.8644C4.9075 24.4081 6.66607 25.4671 8.62139 25.8614C7.34757 26.2086 6.01123 26.2599 4.71455 26.0113C5.26796 27.7263 6.34236 29.226 7.78815 30.3016C9.23394 31.3772 10.9792 31.9752 12.7808 32.0124C10.9886 33.4203 8.93626 34.4608 6.74132 35.0743C4.54638 35.6878 2.25197 35.8623 -0.010498 35.5877C3.93942 38.1272 8.5375 39.4744 13.2333 39.4682C29.1159 39.4682 37.8083 26.306 37.8083 14.8933C37.8083 14.5144 37.8004 14.1461 37.7846 13.7752C39.4769 12.558 40.9358 11.0456 42.0913 9.31058L42.094 9.30795Z" fill="white"/>
</g>
<defs>
<clipPath id="clip0_104_792">
<rect width="42.0939" height="42.0939" fill="white"/>
</clipPath>
</defs>
</svg>
