<svg width="43" height="44" viewBox="0 0 43 44" fill="none" xmlns="http://www.w3.org/2000/svg">
<g clip-path="url(#clip0_110_328)">
<path d="M21.8332 1.50612C16.8337 1.50376 11.9965 3.2812 8.188 6.52016C4.37949 9.75913 1.84835 14.2481 1.04784 19.1831C0.247326 24.1182 1.22973 29.177 3.81912 33.4538C6.40852 37.7306 10.4358 40.9459 15.1797 42.524C16.2321 42.7187 16.6188 42.0663 16.6188 41.5111C16.6188 41.0086 16.5978 39.3512 16.5899 37.5938C10.7336 38.8671 9.4997 35.1102 9.4997 35.1102C8.54206 32.6767 7.16348 32.0295 7.16348 32.0295C5.25347 30.7219 7.30818 30.7509 7.30818 30.7509C9.42077 30.8982 10.5336 32.9187 10.5336 32.9187C12.4121 36.1363 15.4586 35.2049 16.6583 34.6682C16.8477 33.3081 17.3923 32.3794 17.9948 31.8532C13.3197 31.3218 8.40526 29.517 8.40525 21.4508C8.40525 19.154 9.22872 17.2756 10.5731 15.8023C10.3547 15.2708 9.63387 13.1319 10.7757 10.2327C10.7757 10.2327 12.5436 9.66708 16.5662 12.39C18.283 11.923 20.054 11.6851 21.8332 11.6823C23.6222 11.6902 25.4244 11.9244 27.1055 12.39C31.1228 9.66708 32.8881 10.2327 32.8881 10.2327C34.0326 13.1319 33.3143 15.2735 33.096 15.8023C34.4456 17.2756 35.2612 19.154 35.2612 21.4508C35.2612 29.5354 30.3362 31.3139 25.6506 31.8348C26.4057 32.4873 27.0792 33.7685 27.0792 35.7311C27.0792 38.5461 27.0555 40.814 27.0555 41.5059C27.0555 42.0663 27.4343 42.7213 28.5025 42.5161C33.2456 40.9362 37.2714 37.7196 39.8591 33.4421C42.4468 29.1646 43.4275 24.1057 42.6254 19.1712C41.8233 14.2366 39.291 9.7487 35.4817 6.511C31.6725 3.27329 26.8351 1.49725 21.8358 1.50086L21.8332 1.50612Z" fill="white"/>
</g>
<defs>
<clipPath id="clip0_110_328">
<rect width="42.0939" height="42.0939" fill="white" transform="translate(0.786255 0.985107)"/>
</clipPath>
</defs>
</svg>
