<svg width="46" height="46" viewBox="0 0 46 46" fill="none" xmlns="http://www.w3.org/2000/svg">
<path d="M32.8 11.8H35.6M14.6 3.40002H31.4C37.5856 3.40002 42.6 8.41444 42.6 14.6V31.4C42.6 37.5856 37.5856 42.6 31.4 42.6H14.6C8.41443 42.6 3.40002 37.5856 3.40002 31.4V14.6C3.40002 8.41443 8.41444 3.40002 14.6 3.40002ZM23 31.4C18.3608 31.4 14.6 27.6392 14.6 23C14.6 18.3608 18.3608 14.6 23 14.6C27.6392 14.6 31.4 18.3608 31.4 23C31.4 27.6392 27.6392 31.4 23 31.4Z" stroke="white" stroke-width="5"/>
</svg>
