<svg width="43" height="43" viewBox="0 0 43 43" fill="none" xmlns="http://www.w3.org/2000/svg">
<g clip-path="url(#clip0_104_794)">
<path d="M38.1476 0H3.94631C1.77584 0 0 1.77584 0 3.94631V38.1476C0 40.3181 1.77584 42.0939 3.94631 42.0939H38.1476C40.3181 42.0939 42.0939 40.3181 42.0939 38.1476V3.94631C42.0939 1.77584 40.3181 0 38.1476 0ZM15.7852 34.2013H10.5235V15.7852H15.7852V34.2013ZM13.1544 13.1544C12.4566 13.1544 11.7874 12.8772 11.294 12.3838C10.8007 11.8904 10.5235 11.2212 10.5235 10.5235C10.5235 9.82573 10.8007 9.15656 11.294 8.66318C11.7874 8.16979 12.4566 7.89261 13.1544 7.89261C13.8521 7.89261 14.5213 8.16979 15.0147 8.66318C15.508 9.15656 15.7852 9.82573 15.7852 10.5235C15.7852 11.2212 15.508 11.8904 15.0147 12.3838C14.5213 12.8772 13.8521 13.1544 13.1544 13.1544ZM34.2013 34.2013H28.9396V23.6778C28.9396 22.9801 28.6624 22.3109 28.169 21.8175C27.6756 21.3241 27.0065 21.047 26.3087 21.047C25.611 21.047 24.9418 21.3241 24.4484 21.8175C23.955 22.3109 23.6778 22.9801 23.6778 23.6778V34.2013H18.4161V15.7852H23.6778V19.0501C24.7618 17.5611 26.4245 15.7852 28.2819 15.7852C31.5547 15.7852 34.2013 18.7292 34.2013 22.3624V34.2013Z" fill="white"/>
</g>
<defs>
<clipPath id="clip0_104_794">
<rect width="42.0939" height="42.0939" fill="white"/>
</clipPath>
</defs>
</svg>
