<svg width="623" height="572" viewBox="0 0 623 572" fill="none" xmlns="http://www.w3.org/2000/svg">
<g clip-path="url(#clip0_122_3)">
<g filter="url(#filter0_d_122_3)">
<path d="M922.741 92.2366L78.8848 76.6475C72.8107 76.5353 67.7958 81.3684 67.6835 87.4425L60.203 492.373C60.0908 498.447 64.9239 503.462 70.998 503.575L914.854 519.164C920.928 519.276 925.943 514.443 926.055 508.369L933.536 103.438C933.648 97.3638 928.815 92.3488 922.741 92.2366Z" fill="#A6C0E3"/>
</g>
<g filter="url(#filter1_d_122_3)">
<path d="M993.449 147.855L157.04 34.9164C151.019 34.1035 145.48 38.325 144.667 44.3455L90.4724 445.703C89.6595 451.724 93.881 457.263 99.9015 458.076L936.311 571.015C942.331 571.828 947.871 567.606 948.684 561.586L1002.88 160.228C1003.69 154.208 999.47 148.668 993.449 147.855Z" fill="#558EB4"/>
</g>
<g filter="url(#filter2_d_122_3)">
<path d="M632.998 22.0778L35.8019 136.964C29.8362 138.112 25.9304 143.878 27.078 149.844L103.587 547.552C104.735 553.517 110.502 557.423 116.467 556.275L713.663 441.389C719.629 440.242 723.535 434.475 722.387 428.509L645.878 30.8017C644.73 24.836 638.963 20.9302 632.998 22.0778Z" fill="#CCCCCC"/>
<path d="M1050.2 -58.1822L35.8019 136.964C29.8362 138.112 25.9304 143.878 27.078 149.844L33.8789 185.196C35.0265 191.161 40.7931 195.067 46.7588 193.92L1061.16 -1.22655C1067.12 -2.3742 1071.03 -8.14077 1069.88 -14.1065L1063.08 -49.4583C1061.93 -55.424 1056.17 -59.3299 1050.2 -58.1822Z" fill="#F0F0F0"/>
<path d="M607.852 35.0621L590.176 38.4625C584.21 39.6102 580.304 45.3767 581.452 51.3425L584.852 69.0184C586 74.9841 591.767 78.8899 597.732 77.7423L615.408 74.3418C621.374 73.1942 625.28 67.4276 624.132 61.4619L620.732 43.786C619.584 37.8202 613.818 33.9144 607.852 35.0621Z" fill="#CCCCCC"/>
<path d="M612.309 42.3512L588.741 46.8851L593.275 70.453L616.843 65.9191L612.309 42.3512Z" fill="black"/>
<path d="M224.874 108.737L207.198 112.138C201.232 113.286 197.326 119.052 198.474 125.018L201.874 142.694C203.022 148.66 208.789 152.565 214.754 151.418L232.43 148.017C238.396 146.87 242.302 141.103 241.154 135.137L237.754 117.461C236.606 111.496 230.84 107.59 224.874 108.737Z" fill="#CCCCCC"/>
<path d="M224.211 129.286C225.312 128.165 225.925 126.553 225.668 125.218C225.099 122.259 222.37 120.421 219.424 120.988L212.55 122.31C211.829 122.449 211.354 123.151 211.492 123.871L214.515 139.583C214.653 140.303 215.356 140.779 216.076 140.641L223.644 139.185C226.354 138.664 228.403 135.975 227.892 133.249C227.52 131.243 226.064 129.744 224.211 129.286ZM215.798 125.08L219.726 124.324C220.813 124.115 221.859 124.824 222.068 125.91C222.277 126.997 221.568 128.043 220.482 128.252L216.554 129.008L215.798 125.08ZM222.647 135.982L218.065 136.864L217.309 132.936L221.892 132.054C222.979 131.845 224.025 132.554 224.234 133.64C224.443 134.727 223.734 135.773 222.647 135.982Z" fill="#323232"/>
<path d="M358.426 83.0456L340.75 86.446C334.784 87.5937 330.878 93.3602 332.026 99.326L335.426 117.002C336.574 122.968 342.341 126.873 348.306 125.726L365.982 122.325C371.948 121.178 375.854 115.411 374.706 109.445L371.306 91.7695C370.158 85.8038 364.392 81.8979 358.426 83.0456Z" fill="#CCCCCC"/>
<path d="M355.255 114.206C356.695 113.929 357.647 112.524 357.37 111.083L357.118 109.774L351.88 110.781L352.132 112.091C352.409 113.531 353.815 114.483 355.255 114.206ZM342.689 98.293C342.898 99.38 343.944 100.088 345.031 99.879L349.614 98.998L350.369 102.926L355.607 101.918L354.851 97.99L359.433 97.108C360.52 96.899 361.229 95.853 361.02 94.7666C360.811 93.6799 359.765 92.9714 358.678 93.1805L344.275 95.951C343.189 96.16 342.48 97.206 342.689 98.293ZM343.521 109.674L364.47 105.644C365.19 105.505 365.666 104.803 365.527 104.083C365.389 103.363 364.686 102.887 363.966 103.025L343.017 107.055C342.297 107.194 341.821 107.897 341.96 108.617C342.098 109.337 342.801 109.813 343.521 109.674Z" fill="#323232"/>
<path d="M562.68 43.752L545.004 47.1524C539.038 48.3001 535.132 54.0667 536.28 60.0324L539.68 77.7083C540.828 83.674 546.595 87.5799 552.56 86.4322L570.236 83.0318C576.202 81.8841 580.108 76.1176 578.96 70.1518L575.56 52.4759C574.412 46.5102 568.646 42.6044 562.68 43.752Z" fill="#CCCCCC"/>
<path d="M570.826 60.7412C570.495 60.5031 570.052 60.5884 569.834 60.932L567.661 64.3502L564.374 61.9823C564.044 61.7443 563.601 61.8295 563.382 62.1731C563.164 62.5167 563.254 62.9864 563.585 63.2244L567.472 66.0256C567.803 66.2637 568.246 66.1784 568.464 65.8348L571.035 61.7911C571.248 61.4564 571.156 60.9792 570.826 60.7412Z" fill="#323232"/>
<path d="M554.5 69.7657L553.251 70.0059L551.659 61.729L549.332 63.1303L549.115 62.0025L552.416 59.9823L552.611 59.9448L554.5 69.7657Z" fill="black"/>
<path d="M115.873 129.706L98.1968 133.107C92.2311 134.255 88.3253 140.021 89.4729 145.987L92.8733 163.663C94.021 169.629 99.7876 173.534 105.753 172.387L123.429 168.986C129.395 167.839 133.301 162.072 132.153 156.106L128.753 138.43C127.605 132.465 121.838 128.559 115.873 129.706Z" fill="#CCCCCC"/>
<path d="M118.036 147.875C115.482 146.317 112.429 145.644 109.315 146.243C104.427 147.184 100.792 150.964 99.623 155.656C99.4052 156.551 100.017 157.452 100.908 157.586C101.649 157.698 102.334 157.21 102.519 156.461C103.419 152.902 106.192 150.026 109.905 149.312C112.196 148.871 114.458 149.353 116.365 150.463L114.572 153.239C113.98 154.154 114.752 155.381 115.798 155.18L122.366 153.916C123.013 153.792 123.435 153.138 123.305 152.462L121.985 145.601C121.775 144.508 120.4 144.2 119.808 145.116L118.036 147.875Z" fill="#323232"/>
<path d="M315.218 91.3575L297.542 94.7579C291.576 95.9056 287.67 101.672 288.818 107.638L292.218 125.314C293.366 131.28 299.133 135.185 305.098 134.038L322.774 130.637C328.74 129.49 332.646 123.723 331.498 117.757L328.098 100.081C326.95 94.1156 321.184 90.2098 315.218 91.3575Z" fill="#CCCCCC"/>
<path d="M312.766 118.917C316.635 117.643 318.805 113.533 318.036 109.539L316.389 100.976C316.215 100.073 315.341 99.481 314.438 99.655C313.534 99.828 312.942 100.703 313.116 101.606L314.791 110.313C315.211 112.5 314.115 114.774 312.051 115.62C309.223 116.802 306.197 115.048 305.651 112.207L303.95 103.369C303.777 102.466 302.902 101.874 301.999 102.047C301.096 102.221 300.503 103.095 300.677 103.999L302.377 112.837C303.277 117.511 308.093 120.454 312.766 118.917ZM303.335 124.873C303.474 125.593 304.176 126.069 304.896 125.93L320.608 122.908C321.328 122.769 321.804 122.066 321.666 121.346C321.527 120.626 320.824 120.15 320.104 120.289L304.392 123.311C303.672 123.45 303.196 124.153 303.335 124.873Z" fill="#323232"/>
<path d="M517.508 52.4418L429.129 69.4439C423.163 70.5916 419.257 76.3582 420.405 82.3239L424.183 101.964C425.331 107.93 431.098 111.835 437.063 110.688L525.443 93.6856C531.409 92.5379 535.314 86.7714 534.167 80.8056L530.388 61.1658C529.241 55.2 523.474 51.2942 517.508 52.4418Z" fill="#CCCCCC"/>
<path d="M435.878 89.5038L433.582 89.9455L434.343 93.8993L433.047 94.1486L431.167 84.3747L434.403 83.7522C435.504 83.5404 436.398 83.6283 437.085 84.0159C437.777 84.4026 438.214 85.0748 438.399 86.0325C438.516 86.6412 438.452 87.2033 438.208 87.7191C437.968 88.2339 437.577 88.6596 437.034 88.9961L440.127 92.703L440.143 92.7836L438.76 93.0496L435.878 89.5038ZM433.38 88.8915L435.36 88.5106C436 88.3875 436.476 88.1242 436.788 87.7207C437.105 87.3163 437.21 86.8367 437.103 86.2818C436.987 85.6776 436.717 85.2493 436.292 84.9968C435.872 84.7435 435.322 84.68 434.64 84.8064L432.667 85.1861L433.38 88.8915ZM441.872 88.6153C441.735 87.9038 441.75 87.2371 441.919 86.6154C442.091 85.9928 442.396 85.4793 442.833 85.075C443.275 84.6698 443.816 84.4056 444.456 84.2825C445.445 84.0922 446.31 84.2809 447.05 84.8485C447.795 85.4153 448.277 86.267 448.495 87.4037L448.512 87.491C448.648 88.1981 448.634 88.8598 448.469 89.4762C448.309 90.0873 448.005 90.5981 447.56 91.0087C447.119 91.4183 446.572 91.686 445.918 91.8117C444.934 92.0011 444.069 91.8125 443.324 91.2457C442.584 90.6781 442.105 89.8304 441.888 88.7026L441.872 88.6153ZM443.149 88.5228C443.304 89.3284 443.614 89.9393 444.079 90.3557C444.549 90.7711 445.097 90.9186 445.723 90.7981C446.354 90.6767 446.808 90.3341 447.085 89.7704C447.361 89.2022 447.413 88.4728 447.242 87.5822C447.089 86.7856 446.775 86.1778 446.299 85.7587C445.828 85.3343 445.279 85.1823 444.652 85.3029C444.039 85.4208 443.592 85.7598 443.31 86.3199C443.028 86.8801 442.974 87.6144 443.149 88.5228ZM457.8 85.7044C458.013 86.8142 457.93 87.7561 457.55 88.53C457.169 89.2994 456.548 89.7668 455.689 89.9321C454.772 90.1086 454 89.9206 453.374 89.3681L453.475 90.2188L452.334 90.4384L450.35 80.1274L451.592 79.8885L452.332 83.735C452.714 83.0165 453.345 82.5725 454.227 82.4029C455.108 82.2333 455.864 82.4336 456.493 83.004C457.127 83.5736 457.556 84.4379 457.779 85.5969L457.8 85.7044ZM456.531 85.8023C456.368 84.9565 456.079 84.3345 455.663 83.9364C455.248 83.5383 454.734 83.3982 454.121 83.5162C453.302 83.6737 452.786 84.1673 452.575 84.997L453.179 88.1386C453.706 88.8262 454.372 89.0925 455.178 88.9376C455.773 88.8231 456.192 88.5035 456.434 87.9788C456.677 87.4542 456.709 86.7287 456.531 85.8023ZM460.594 85.0136C460.457 84.3021 460.473 83.6354 460.641 83.0137C460.814 82.3911 461.119 81.8776 461.556 81.4733C461.998 81.068 462.539 80.8039 463.179 80.6808C464.168 80.4905 465.032 80.6792 465.773 81.2468C466.517 81.8136 466.999 82.6653 467.218 83.802L467.235 83.8893C467.371 84.5964 467.356 85.2581 467.192 85.8745C467.031 86.4856 466.728 86.9964 466.282 87.4069C465.841 87.8166 465.294 88.0843 464.641 88.21C463.656 88.3994 462.792 88.2107 462.047 87.644C461.306 87.0763 460.828 86.2286 460.611 85.1009L460.594 85.0136ZM461.871 84.9211C462.026 85.7266 462.336 86.3376 462.801 86.7539C463.271 87.1694 463.819 87.3169 464.446 87.1964C465.077 87.075 465.531 86.7324 465.808 86.1687C466.083 85.6005 466.136 84.8711 465.964 83.9805C465.811 83.1839 465.497 82.5761 465.022 82.157C464.55 81.7325 464.001 81.5806 463.375 81.7011C462.762 81.8191 462.314 82.1581 462.032 82.7182C461.75 83.2783 461.696 84.0126 461.871 84.9211ZM471.005 77.4904L471.344 79.2492L472.7 78.9883L472.884 79.9483L471.528 80.2091L472.395 84.7134C472.451 85.0043 472.554 85.212 472.703 85.3364C472.851 85.4564 473.071 85.4884 473.362 85.4324C473.505 85.4049 473.697 85.3402 473.937 85.2382L474.131 86.2452C473.821 86.3975 473.512 86.5034 473.203 86.5628C472.648 86.6696 472.198 86.5822 471.851 86.3008C471.505 86.0194 471.272 85.5699 471.153 84.9524L470.287 80.448L468.964 80.7024L468.78 79.7425L470.102 79.4881L469.764 77.7293L471.005 77.4904ZM475.96 82.0576C475.823 81.346 475.839 80.6794 476.007 80.0576C476.18 79.435 476.484 78.9216 476.922 78.5172C477.364 78.112 477.905 77.8478 478.545 77.7247C479.534 77.5345 480.398 77.7231 481.139 78.2908C481.883 78.8575 482.365 79.7093 482.584 80.846L482.601 80.9332C482.737 81.6403 482.722 82.3021 482.558 82.9185C482.397 83.5295 482.094 84.0403 481.648 84.4509C481.207 84.8606 480.66 85.1283 480.007 85.254C479.022 85.4434 478.158 85.2547 477.413 84.6879C476.672 84.1203 476.194 83.2726 475.977 82.1448L475.96 82.0576ZM477.237 81.9651C477.392 82.7706 477.702 83.3815 478.167 83.7979C478.637 84.2134 479.185 84.3609 479.812 84.2403C480.443 84.1189 480.897 83.7764 481.173 83.2126C481.449 82.6444 481.502 81.915 481.33 81.0245C481.177 80.2279 480.863 79.62 480.388 79.2009C479.916 78.7765 479.367 78.6246 478.741 78.7451C478.128 78.863 477.68 79.2021 477.398 79.7622C477.116 80.3223 477.062 81.0566 477.237 81.9651Z" fill="black"/>
<path d="M524.672 69.6199C524.342 69.3819 523.898 69.4672 523.68 69.8108L521.507 73.229L518.22 70.861C517.89 70.623 517.447 70.7083 517.228 71.0519C517.01 71.3955 517.1 71.8652 517.431 72.1032L521.318 74.9044C521.649 75.1424 522.092 75.0572 522.31 74.7136L524.881 70.6699C525.094 70.3352 525.002 69.8579 524.672 69.6199Z" fill="#323232"/>
<path d="M70.8899 139.378L53.214 142.779C47.2483 143.927 43.3425 149.693 44.4901 155.659L47.8906 173.335C49.0382 179.301 54.8048 183.206 60.7705 182.059L78.4464 178.658C84.4122 177.511 88.318 171.744 87.1703 165.778L83.7699 148.102C82.6222 142.137 76.8557 138.231 70.8899 139.378Z" fill="#CCCCCC"/>
<path d="M65.433 155.704C62.3208 156.302 59.736 158.06 57.9435 160.454L55.2775 158.561C54.3888 157.93 53.2244 158.714 53.4345 159.807L54.7546 166.668C54.8844 167.343 55.5192 167.794 56.1651 167.67L62.7301 166.407C63.7754 166.206 64.0488 164.778 63.1602 164.147L60.466 162.234C61.8245 160.497 63.7332 159.213 66.0351 158.77C69.7463 158.056 73.3869 159.698 75.5418 162.669C75.9911 163.296 76.8089 163.495 77.4546 163.116C78.2341 162.673 78.4656 161.598 77.9292 160.835C75.0827 156.928 70.3068 154.766 65.433 155.704Z" fill="#323232"/>
<path d="M270.046 100.048L252.37 103.448C246.404 104.596 242.498 110.362 243.646 116.328L247.046 134.004C248.194 139.97 253.961 143.875 259.926 142.728L277.602 139.327C283.568 138.18 287.474 132.413 286.326 126.447L282.926 108.771C281.778 102.806 276.012 98.8999 270.046 100.048Z" fill="#CCCCCC"/>
<path d="M261.045 115.018C261.254 116.104 262.3 116.813 263.387 116.604L264.316 116.425L261.854 127.761L260.165 128.086C259.078 128.295 258.369 129.341 258.578 130.428C258.788 131.514 259.834 132.223 260.92 132.014L267.467 130.754C268.554 130.545 269.262 129.499 269.053 128.413C268.844 127.326 267.798 126.617 266.711 126.826L265.782 127.005L268.244 115.669L269.933 115.344C271.02 115.135 271.729 114.089 271.52 113.002C271.311 111.916 270.265 111.207 269.178 111.416L262.631 112.676C261.544 112.885 260.836 113.931 261.045 115.018Z" fill="#323232"/>
<path d="M75.5061 222.634L77.5721 215.694L79.4536 215.332L76.6369 224.045L77.5385 228.732L75.8813 229.05L74.9798 224.364L69.1312 217.317L71.03 216.952L75.5061 222.634ZM83.3687 222.678C83.1927 221.764 83.2128 220.907 83.429 220.107C83.6509 219.307 84.043 218.646 84.6053 218.127C85.1734 217.606 85.8688 217.266 86.6916 217.108C87.9632 216.863 89.075 217.106 90.0269 217.835C90.9845 218.564 91.6039 219.659 91.885 221.121L91.9066 221.233C92.0815 222.142 92.0632 222.993 91.8517 223.785C91.6448 224.571 91.255 225.228 90.6823 225.756C90.1154 226.282 89.4119 226.627 88.5718 226.788C87.3059 227.032 86.1942 226.789 85.2366 226.06C84.2847 225.331 83.6693 224.241 83.3903 222.791L83.3687 222.678ZM85.0106 222.56C85.2098 223.595 85.6086 224.381 86.2068 224.916C86.8108 225.45 87.5155 225.64 88.3211 225.485C89.1324 225.329 89.7159 224.888 90.0717 224.164C90.4265 223.433 90.4937 222.495 90.2734 221.35C90.0764 220.326 89.6724 219.544 89.0616 219.006C88.4554 218.46 87.7495 218.265 86.944 218.42C86.1557 218.571 85.5802 219.007 85.2176 219.727C84.8549 220.447 84.7859 221.391 85.0106 222.56ZM102.408 222.99C101.927 223.84 101.085 224.381 99.8826 224.612C98.8872 224.804 98.0724 224.662 97.4381 224.187C96.8084 223.706 96.3817 222.899 96.1579 221.767L94.989 215.69L96.5857 215.383L97.7463 221.416C98.0186 222.832 98.7301 223.429 99.8809 223.207C101.101 222.973 101.825 222.362 102.052 221.375L100.746 214.583L102.342 214.276L104.139 223.614L102.62 223.907L102.408 222.99ZM111.599 213.981C111.349 213.987 111.084 214.017 110.802 214.072C109.754 214.273 109.13 214.856 108.927 215.819L110.202 222.448L108.606 222.755L106.809 213.417L108.363 213.118L108.596 214.192C108.959 213.257 109.621 212.697 110.582 212.512C110.893 212.452 111.136 212.447 111.313 212.496L111.599 213.981ZM129.478 207.122L125.439 207.899L127.594 219.102L125.945 219.419L123.79 208.217L119.759 208.992L119.497 207.628L129.215 205.759L129.478 207.122ZM138.325 217.217C137.059 217.46 135.949 217.244 134.996 216.568C134.041 215.887 133.43 214.85 133.162 213.457L133.106 213.164C132.928 212.238 132.944 211.378 133.156 210.586C133.372 209.786 133.757 209.121 134.312 208.591C134.871 208.054 135.521 207.714 136.264 207.571C137.478 207.338 138.498 207.556 139.325 208.226C140.152 208.897 140.709 209.977 140.996 211.467L141.124 212.132L134.797 213.349C134.997 214.265 135.408 214.959 136.03 215.43C136.656 215.894 137.367 216.05 138.161 215.897C138.724 215.789 139.18 215.582 139.527 215.276C139.874 214.971 140.158 214.6 140.378 214.164L141.499 214.736C140.948 216.089 139.89 216.916 138.325 217.217ZM136.516 208.883C135.871 209.007 135.376 209.347 135.029 209.903C134.682 210.453 134.538 211.161 134.597 212.027L139.275 211.127L139.251 211.006C139.049 210.204 138.71 209.619 138.233 209.251C137.756 208.877 137.183 208.755 136.516 208.883ZM147.815 209.063L149.23 205.256L151.094 204.897L148.927 210.102L152.986 214.217L151.139 214.573L148.309 211.492L146.823 215.403L144.968 215.76L147.21 210.433L143.266 206.403L145.113 206.048L147.815 209.063ZM156.559 201.501L156.994 203.762L158.737 203.427L158.975 204.661L157.231 204.996L158.345 210.788C158.417 211.162 158.549 211.429 158.741 211.589C158.932 211.743 159.214 211.784 159.588 211.712C159.772 211.677 160.019 211.594 160.328 211.462L160.577 212.757C160.179 212.953 159.781 213.089 159.384 213.165C158.671 213.303 158.091 213.19 157.646 212.829C157.2 212.467 156.901 211.889 156.749 211.095L155.634 205.304L153.934 205.631L153.697 204.397L155.397 204.069L154.962 201.808L156.559 201.501ZM169.564 206.106C169.283 204.65 169.398 203.429 169.906 202.442C170.413 201.449 171.222 200.846 172.332 200.632C173.472 200.413 174.438 200.645 175.232 201.328L175.11 200.277L176.569 199.997L178.322 209.111C178.555 210.319 178.378 211.34 177.793 212.175C177.213 213.008 176.319 213.541 175.111 213.774C174.438 213.903 173.751 213.886 173.052 213.723C172.352 213.559 171.784 213.259 171.348 212.824L171.992 211.707C172.84 212.421 173.758 212.683 174.748 212.492C175.525 212.343 176.087 212.008 176.434 211.488C176.788 210.966 176.888 210.308 176.735 209.514L176.581 208.712C176.084 209.571 175.283 210.107 174.178 210.32C173.085 210.53 172.114 210.26 171.266 209.51C170.423 208.76 169.856 207.625 169.564 206.106ZM171.204 205.978C171.406 207.031 171.781 207.818 172.329 208.339C172.876 208.855 173.538 209.038 174.314 208.888C175.321 208.694 175.973 208.095 176.268 207.089L175.448 202.826C174.788 202.028 173.968 201.723 172.99 201.911C172.213 202.061 171.664 202.479 171.343 203.168C171.022 203.856 170.976 204.793 171.204 205.978ZM181.477 203.805C181.301 202.89 181.321 202.033 181.537 201.234C181.759 200.433 182.151 199.773 182.713 199.253C183.281 198.732 183.977 198.392 184.8 198.234C186.071 197.989 187.183 198.232 188.135 198.962C189.093 199.691 189.712 200.786 189.993 202.247L190.015 202.359C190.19 203.268 190.171 204.119 189.96 204.912C189.753 205.697 189.363 206.354 188.79 206.882C188.223 207.409 187.52 207.753 186.68 207.915C185.414 208.158 184.302 207.915 183.345 207.187C182.393 206.457 181.777 205.367 181.498 203.917L181.477 203.805ZM183.119 203.686C183.318 204.722 183.717 205.507 184.315 206.042C184.919 206.577 185.624 206.766 186.429 206.611C187.24 206.455 187.824 206.015 188.18 205.29C188.535 204.559 188.602 203.622 188.382 202.477C188.184 201.452 187.781 200.671 187.17 200.132C186.564 199.586 185.858 199.391 185.052 199.546C184.264 199.698 183.688 200.134 183.326 200.854C182.963 201.574 182.894 202.518 183.119 203.686ZM198.837 205.576C197.571 205.819 196.461 205.603 195.508 204.927C194.553 204.246 193.942 203.209 193.674 201.816L193.618 201.523C193.439 200.597 193.456 199.737 193.668 198.945C193.884 198.145 194.269 197.48 194.823 196.95C195.382 196.413 196.033 196.073 196.775 195.93C197.989 195.697 199.01 195.915 199.837 196.585C200.664 197.256 201.221 198.336 201.507 199.826L201.635 200.491L195.309 201.708C195.509 202.624 195.92 203.318 196.542 203.789C197.168 204.253 197.878 204.409 198.672 204.256C199.236 204.148 199.691 203.941 200.038 203.635C200.385 203.33 200.669 202.959 200.89 202.523L202.011 203.095C201.46 204.448 200.402 205.275 198.837 205.576ZM197.028 197.242C196.383 197.366 195.888 197.706 195.541 198.262C195.193 198.812 195.049 199.52 195.108 200.386L199.786 199.486L199.763 199.365C199.561 198.563 199.222 197.978 198.745 197.61C198.267 197.236 197.695 197.114 197.028 197.242ZM211.295 200.432C211.212 200 210.984 199.698 210.61 199.525C210.242 199.345 209.635 199.247 208.79 199.231C207.952 199.213 207.27 199.129 206.746 198.979C206.228 198.829 205.822 198.608 205.527 198.319C205.239 198.028 205.05 197.653 204.962 197.193C204.814 196.427 205.012 195.718 205.555 195.065C206.103 194.41 206.881 193.986 207.887 193.793C208.946 193.589 209.856 193.697 210.617 194.118C211.384 194.537 211.849 195.172 212.013 196.024L210.408 196.333C210.324 195.896 210.064 195.555 209.629 195.31C209.2 195.065 208.704 194.996 208.14 195.104C207.559 195.216 207.129 195.43 206.849 195.747C206.57 196.063 206.47 196.425 206.548 196.834C206.622 197.219 206.831 197.48 207.173 197.617C207.516 197.754 208.101 197.836 208.93 197.861C209.764 197.886 210.452 197.974 210.995 198.126C211.537 198.279 211.96 198.508 212.263 198.813C212.571 199.112 212.774 199.512 212.87 200.012C213.03 200.846 212.826 201.581 212.256 202.216C211.684 202.845 210.867 203.262 209.802 203.466C209.054 203.61 208.367 203.605 207.741 203.451C207.114 203.297 206.592 203.016 206.173 202.607C205.759 202.192 205.499 201.708 205.393 201.155L206.989 200.848C207.121 201.378 207.416 201.762 207.874 202.003C208.336 202.236 208.896 202.289 209.551 202.163C210.156 202.047 210.616 201.833 210.932 201.522C211.252 201.203 211.373 200.84 211.295 200.432ZM223.916 192.061C224.456 191.056 225.293 190.444 226.427 190.226C228.4 189.846 229.61 190.768 230.056 192.992L231.243 199.163L229.646 199.47L228.457 193.29C228.322 192.618 228.071 192.15 227.704 191.887C227.343 191.622 226.843 191.551 226.204 191.674C225.686 191.774 225.258 191.999 224.92 192.351C224.582 192.702 224.347 193.123 224.215 193.614L225.495 200.269L223.898 200.576L221.348 187.319L222.944 187.012L223.916 192.061ZM239.575 197.739C238.309 197.982 237.199 197.766 236.246 197.09C235.291 196.409 234.68 195.372 234.412 193.979L234.356 193.686C234.177 192.76 234.194 191.9 234.406 191.108C234.622 190.308 235.007 189.643 235.561 189.113C236.12 188.576 236.771 188.236 237.513 188.093C238.727 187.86 239.748 188.078 240.575 188.748C241.402 189.419 241.959 190.499 242.246 191.989L242.373 192.654L236.047 193.871C236.247 194.787 236.658 195.481 237.28 195.952C237.906 196.416 238.616 196.572 239.41 196.419C239.974 196.311 240.43 196.104 240.777 195.798C241.124 195.493 241.407 195.122 241.628 194.686L242.749 195.258C242.198 196.611 241.14 197.438 239.575 197.739ZM237.766 189.405C237.121 189.529 236.626 189.869 236.279 190.425C235.932 190.975 235.787 191.683 235.846 192.549L240.524 191.649L240.501 191.528C240.299 190.726 239.96 190.141 239.483 189.773C239.006 189.399 238.433 189.277 237.766 189.405ZM250.065 187.343C249.816 187.35 249.55 187.38 249.268 187.434C248.221 187.636 247.596 188.218 247.394 189.182L248.669 195.81L247.072 196.118L245.276 186.779L246.829 186.48L247.063 187.554C247.426 186.619 248.088 186.059 249.049 185.874C249.359 185.814 249.603 185.809 249.779 185.859L250.065 187.343ZM258.83 194.035C257.564 194.278 256.455 194.062 255.501 193.386C254.547 192.705 253.936 191.668 253.668 190.275L253.611 189.982C253.433 189.055 253.45 188.196 253.661 187.403C253.877 186.604 254.263 185.939 254.817 185.409C255.376 184.872 256.027 184.532 256.769 184.389C257.983 184.155 259.004 184.374 259.831 185.044C260.658 185.714 261.215 186.795 261.501 188.285L261.629 188.949L255.303 190.166C255.503 191.083 255.914 191.776 256.535 192.247C257.162 192.712 257.872 192.867 258.666 192.715C259.23 192.606 259.685 192.399 260.032 192.094C260.379 191.788 260.663 191.418 260.883 190.981L262.005 191.553C261.454 192.906 260.395 193.733 258.83 194.035ZM257.021 185.701C256.377 185.825 255.881 186.165 255.535 186.721C255.187 187.271 255.043 187.979 255.102 188.845L259.78 187.945L259.757 187.824C259.555 187.021 259.215 186.436 258.739 186.069C258.261 185.695 257.689 185.572 257.021 185.701ZM272.618 190.335C272.565 190.059 272.601 189.813 272.727 189.598C272.859 189.382 273.088 189.242 273.416 189.179C273.744 189.116 274.009 189.16 274.212 189.312C274.42 189.463 274.55 189.677 274.603 189.953C274.654 190.218 274.611 190.456 274.472 190.667C274.34 190.878 274.11 191.015 273.782 191.078C273.454 191.141 273.189 191.099 272.988 190.953C272.792 190.806 272.669 190.6 272.618 190.335ZM279.312 189.047C279.259 188.771 279.295 188.525 279.421 188.31C279.552 188.094 279.782 187.954 280.11 187.891C280.438 187.828 280.703 187.873 280.905 188.025C281.113 188.176 281.244 188.389 281.297 188.665C281.348 188.93 281.304 189.168 281.166 189.38C281.033 189.59 280.803 189.727 280.475 189.79C280.147 189.853 279.882 189.812 279.681 189.665C279.486 189.518 279.363 189.312 279.312 189.047ZM286.005 187.76C285.952 187.483 285.988 187.238 286.114 187.023C286.245 186.806 286.475 186.667 286.803 186.604C287.131 186.541 287.396 186.585 287.598 186.737C287.806 186.888 287.937 187.102 287.99 187.378C288.041 187.642 287.997 187.881 287.859 188.092C287.727 188.303 287.496 188.439 287.168 188.502C286.84 188.566 286.576 188.524 286.375 188.378C286.179 188.23 286.056 188.024 286.005 187.76Z" fill="#7A7A7A"/>
</g>
</g>
<defs>
<filter id="filter0_d_122_3" x="40.201" y="56.6456" width="913.337" height="482.52" filterUnits="userSpaceOnUse" color-interpolation-filters="sRGB">
<feFlood flood-opacity="0" result="BackgroundImageFix"/>
<feColorMatrix in="SourceAlpha" type="matrix" values="0 0 0 0 0 0 0 0 0 0 0 0 0 0 0 0 0 0 127 0" result="hardAlpha"/>
<feOffset/>
<feGaussianBlur stdDeviation="10"/>
<feColorMatrix type="matrix" values="0 0 0 0 0 0 0 0 0 0 0 0 0 0 0 0 0 0 0.25 0"/>
<feBlend mode="normal" in2="BackgroundImageFix" result="effect1_dropShadow_122_3"/>
<feBlend mode="normal" in="SourceGraphic" in2="effect1_dropShadow_122_3" result="shape"/>
</filter>
<filter id="filter1_d_122_3" x="70.3722" y="14.8162" width="952.607" height="576.299" filterUnits="userSpaceOnUse" color-interpolation-filters="sRGB">
<feFlood flood-opacity="0" result="BackgroundImageFix"/>
<feColorMatrix in="SourceAlpha" type="matrix" values="0 0 0 0 0 0 0 0 0 0 0 0 0 0 0 0 0 0 127 0" result="hardAlpha"/>
<feOffset/>
<feGaussianBlur stdDeviation="10"/>
<feColorMatrix type="matrix" values="0 0 0 0 0 0 0 0 0 0 0 0 0 0 0 0 0 0 0.25 0"/>
<feBlend mode="normal" in2="BackgroundImageFix" result="effect1_dropShadow_122_3"/>
<feBlend mode="normal" in="SourceGraphic" in2="effect1_dropShadow_122_3" result="shape"/>
</filter>
<filter id="filter2_d_122_3" x="6.87793" y="-78.3823" width="1083.2" height="654.858" filterUnits="userSpaceOnUse" color-interpolation-filters="sRGB">
<feFlood flood-opacity="0" result="BackgroundImageFix"/>
<feColorMatrix in="SourceAlpha" type="matrix" values="0 0 0 0 0 0 0 0 0 0 0 0 0 0 0 0 0 0 127 0" result="hardAlpha"/>
<feOffset/>
<feGaussianBlur stdDeviation="10"/>
<feColorMatrix type="matrix" values="0 0 0 0 0 0 0 0 0 0 0 0 0 0 0 0 0 0 0.25 0"/>
<feBlend mode="normal" in2="BackgroundImageFix" result="effect1_dropShadow_122_3"/>
<feBlend mode="normal" in="SourceGraphic" in2="effect1_dropShadow_122_3" result="shape"/>
</filter>
<clipPath id="clip0_122_3">
<rect width="623" height="602" fill="white" transform="translate(0 -5)"/>
</clipPath>
</defs>
</svg>
